<svg width="1463" height="780" viewBox="0 0 1463 780" fill="none" xmlns="http://www.w3.org/2000/svg">
<path d="M1230.73 2.10416C1232.61 1.67291 1233.77 -0.205123 1233.34 -2.09055C1232.9 -3.97597 1231.03 -5.15481 1229.16 -4.72357C1227.29 -4.29232 1226.12 -2.41428 1226.55 -0.528855C1226.99 1.35657 1228.86 2.53541 1230.73 2.10416Z" fill="white"/>
<path d="M1202.58 81.5901C1205.58 80.8998 1207.45 77.8938 1206.75 74.876C1206.06 71.8581 1203.06 69.9712 1200.06 70.6614C1197.07 71.3517 1195.2 74.3578 1195.89 77.3756C1196.59 80.3935 1199.58 82.2803 1202.58 81.5901Z" fill="white"/>
<path d="M1177.26 148.552C1178.57 148.25 1179.39 146.936 1179.08 145.616C1178.78 144.296 1177.47 143.471 1176.16 143.773C1174.85 144.075 1174.03 145.389 1174.33 146.709C1174.64 148.029 1175.95 148.854 1177.26 148.552Z" fill="white"/>
<path d="M1165.96 240.701C1168.02 240.226 1169.3 238.159 1168.82 236.085C1168.35 234.01 1166.29 232.712 1164.23 233.187C1162.16 233.662 1160.88 235.728 1161.36 237.803C1161.84 239.878 1163.89 241.175 1165.96 240.701Z" fill="white"/>
<path d="M1159.99 287.744C1161.11 287.485 1161.81 286.358 1161.55 285.227C1161.29 284.096 1160.17 283.388 1159.05 283.647C1157.92 283.906 1157.22 285.033 1157.48 286.164C1157.74 287.295 1158.87 288.002 1159.99 287.744Z" fill="white"/>
<path d="M1158.66 320.776C1161.1 320.216 1162.62 317.773 1162.05 315.321C1161.49 312.869 1159.05 311.336 1156.62 311.897C1154.18 312.458 1152.66 314.9 1153.23 317.352C1153.79 319.804 1156.23 321.337 1158.66 320.776Z" fill="white"/>
<path d="M1167.84 401.015C1171.4 400.196 1173.62 396.626 1172.8 393.042C1171.97 389.459 1168.42 387.218 1164.85 388.038C1161.29 388.857 1159.08 392.427 1159.9 396.011C1160.73 399.594 1164.28 401.835 1167.84 401.015Z" fill="white"/>
<path d="M1173.92 460.03C1175.05 459.771 1175.75 458.644 1175.49 457.513C1175.23 456.382 1174.1 455.674 1172.98 455.933C1171.86 456.192 1171.16 457.319 1171.42 458.45C1171.68 459.581 1172.8 460.288 1173.92 460.03Z" fill="white"/>
<path d="M1199.63 542.219C1201.88 541.702 1203.28 539.447 1202.76 537.184C1202.24 534.92 1199.99 533.505 1197.75 534.023C1195.5 534.541 1194.1 536.795 1194.62 539.059C1195.14 541.322 1197.38 542.737 1199.63 542.219Z" fill="white"/>
<path d="M1286.84 733.237C1288.71 732.806 1289.88 730.928 1289.45 729.042C1289.01 727.157 1287.14 725.978 1285.27 726.409C1283.39 726.841 1282.23 728.719 1282.66 730.604C1283.09 732.489 1284.97 733.668 1286.84 733.237Z" fill="white"/>
<path d="M461.809 109.346C465.183 108.569 467.284 105.187 466.502 101.792C465.721 98.3972 462.353 96.2744 458.979 97.051C455.606 97.8275 453.505 101.209 454.286 104.604C455.068 108 458.436 110.122 461.809 109.346Z" fill="white"/>
<path d="M928.527 117.346C930.775 116.828 932.176 114.574 931.655 112.31C931.134 110.047 928.889 108.632 926.64 109.149C924.391 109.667 922.99 111.921 923.511 114.185C924.032 116.448 926.278 117.863 928.527 117.346Z" fill="white"/>
<path d="M411.405 -0.961505C414.028 -1.56549 415.663 -4.1958 415.055 -6.83642C414.447 -9.47705 411.827 -11.1281 409.203 -10.5241C406.58 -9.92008 404.945 -7.28982 405.553 -4.64919C406.161 -2.00857 408.781 -0.35752 411.405 -0.961505Z" fill="white"/>
<path d="M728.692 53.3044C731.316 52.7004 732.95 50.0701 732.342 47.4295C731.734 44.7889 729.114 43.1378 726.491 43.7418C723.867 44.3458 722.233 46.9761 722.841 49.6167C723.448 52.2574 726.068 53.9084 728.692 53.3044Z" fill="white"/>
<path d="M557.745 127.177C559.056 126.875 559.873 125.561 559.569 124.241C559.265 122.921 557.956 122.096 556.645 122.398C555.333 122.699 554.517 124.014 554.82 125.334C555.124 126.654 556.434 127.479 557.745 127.177Z" fill="white"/>
<path d="M91.993 421.395C94.8042 420.748 96.5551 417.93 95.9038 415.101C95.2525 412.272 92.4457 410.503 89.6345 411.15C86.8233 411.797 85.0723 414.615 85.7236 417.444C86.3749 420.273 89.1818 422.042 91.993 421.395Z" fill="white"/>
<path d="M729.939 383.144C731.063 382.885 731.763 381.758 731.503 380.627C731.242 379.496 730.12 378.789 728.996 379.047C727.872 379.306 727.172 380.433 727.432 381.564C727.693 382.696 728.815 383.403 729.939 383.144Z" fill="white"/>
<path d="M830.758 338.361C833.382 337.757 835.016 335.126 834.408 332.486C833.8 329.845 831.181 328.194 828.557 328.798C825.933 329.402 824.299 332.032 824.907 334.673C825.515 337.313 828.134 338.964 830.758 338.361Z" fill="white"/>
<path d="M520.218 481.049C521.342 480.79 522.042 479.663 521.781 478.532C521.521 477.401 520.399 476.694 519.275 476.952C518.151 477.211 517.451 478.338 517.711 479.469C517.971 480.6 519.094 481.308 520.218 481.049Z" fill="white"/>
<path d="M708.669 210.029C709.98 209.727 710.797 208.413 710.493 207.093C710.19 205.773 708.88 204.948 707.569 205.25C706.258 205.552 705.441 206.867 705.745 208.186C706.048 209.506 707.358 210.331 708.669 210.029Z" fill="white"/>
<path d="M722.33 246.085C724.954 245.481 726.588 242.851 725.98 240.21C725.372 237.57 722.753 235.919 720.129 236.523C717.505 237.127 715.871 239.757 716.479 242.398C717.086 245.038 719.706 246.689 722.33 246.085Z" fill="white"/>
<path d="M1053.28 184.285C1054.77 183.94 1055.71 182.438 1055.36 180.929C1055.01 179.421 1053.52 178.478 1052.02 178.823C1050.52 179.168 1049.59 180.67 1049.93 182.179C1050.28 183.687 1051.78 184.63 1053.28 184.285Z" fill="white"/>
<path d="M1346.96 662.219C1348.27 661.917 1349.09 660.603 1348.78 659.283C1348.48 657.963 1347.17 657.138 1345.86 657.44C1344.55 657.742 1343.73 659.056 1344.03 660.376C1344.34 661.696 1345.65 662.521 1346.96 662.219Z" fill="white"/>
<path d="M1464.42 480.186C1465.36 479.97 1465.94 479.031 1465.72 478.088C1465.51 477.146 1464.57 476.556 1463.63 476.772C1462.7 476.987 1462.11 477.926 1462.33 478.869C1462.55 479.812 1463.48 480.401 1464.42 480.186Z" fill="white"/>
<path d="M1284.04 145.191C1286.66 144.587 1288.3 141.957 1287.69 139.316C1287.08 136.675 1284.46 135.024 1281.84 135.628C1279.21 136.232 1277.58 138.863 1278.19 141.503C1278.8 144.144 1281.42 145.795 1284.04 145.191Z" fill="white"/>
<path d="M945.175 352.656C947.048 352.225 948.215 350.347 947.781 348.462C947.347 346.576 945.476 345.397 943.603 345.829C941.729 346.26 940.563 348.138 940.997 350.023C941.431 351.909 943.301 353.088 945.175 352.656Z" fill="white"/>
<path d="M1166.6 75.8481C1169.78 75.1147 1171.77 71.9208 1171.03 68.7143C1170.29 65.5078 1167.11 63.503 1163.92 64.2364C1160.74 64.9698 1158.75 68.1637 1159.49 71.3702C1160.23 74.5767 1163.41 76.5815 1166.6 75.8481Z" fill="white"/>
<path d="M814.835 433.728C818.209 432.952 820.31 429.57 819.528 426.175C818.747 422.78 815.379 420.657 812.005 421.434C808.632 422.21 806.531 425.592 807.312 428.987C808.094 432.382 811.462 434.505 814.835 433.728Z" fill="white"/>
<path d="M1183.38 220.148C1185.63 219.63 1187.03 217.375 1186.51 215.112C1185.99 212.849 1183.74 211.433 1181.49 211.951C1179.24 212.469 1177.84 214.723 1178.36 216.987C1178.88 219.25 1181.13 220.665 1183.38 220.148Z" fill="white"/>
<path d="M1007.83 345.428C1010.08 344.911 1011.48 342.656 1010.96 340.393C1010.44 338.129 1008.19 336.714 1005.94 337.232C1003.69 337.75 1002.29 340.004 1002.81 342.267C1003.34 344.531 1005.58 345.946 1007.83 345.428Z" fill="white"/>
<path d="M994.268 455.714C995.58 455.412 996.396 454.098 996.093 452.778C995.789 451.458 994.479 450.633 993.168 450.935C991.857 451.236 991.04 452.551 991.344 453.871C991.648 455.191 992.957 456.016 994.268 455.714Z" fill="white"/>
<path d="M990.358 491.499C992.42 491.025 993.704 488.958 993.226 486.883C992.748 484.808 990.69 483.511 988.629 483.986C986.567 484.46 985.283 486.527 985.761 488.602C986.238 490.676 988.297 491.974 990.358 491.499Z" fill="white"/>
<path d="M1215.33 587.151C1217.02 586.762 1218.07 585.072 1217.68 583.375C1217.29 581.679 1215.61 580.617 1213.92 581.006C1212.23 581.394 1211.18 583.084 1211.57 584.781C1211.96 586.478 1213.65 587.539 1215.33 587.151Z" fill="white"/>
<path d="M1195.29 622.694C1198.1 622.047 1199.85 619.229 1199.2 616.4C1198.55 613.571 1195.74 611.802 1192.93 612.449C1190.12 613.096 1188.37 615.914 1189.02 618.743C1189.67 621.573 1192.48 623.342 1195.29 622.694Z" fill="white"/>
<path d="M1203.81 760.623C1206.81 759.933 1208.68 756.927 1207.99 753.909C1207.29 750.891 1204.3 749.004 1201.3 749.694C1198.3 750.385 1196.43 753.391 1197.13 756.408C1197.82 759.426 1200.82 761.313 1203.81 760.623Z" fill="white"/>
<path d="M1037.45 632.418C1039.7 631.9 1041.1 629.645 1040.58 627.382C1040.06 625.119 1037.81 623.703 1035.56 624.221C1033.31 624.739 1031.91 626.993 1032.43 629.257C1032.95 631.52 1035.2 632.935 1037.45 632.418Z" fill="white"/>
<path d="M1045.78 575.477C1046.9 575.218 1047.6 574.091 1047.34 572.96C1047.08 571.829 1045.96 571.121 1044.84 571.38C1043.71 571.639 1043.01 572.766 1043.27 573.897C1043.53 575.028 1044.65 575.735 1045.78 575.477Z" fill="white"/>
<path d="M1048.6 510.099C1052.16 509.279 1054.37 505.709 1053.55 502.126C1052.72 498.542 1049.17 496.301 1045.61 497.121C1042.05 497.941 1039.83 501.51 1040.65 505.094C1041.48 508.678 1045.03 510.918 1048.6 510.099Z" fill="white"/>
<path d="M1055.45 431.204C1058.07 430.6 1059.7 427.97 1059.1 425.329C1058.49 422.689 1055.87 421.038 1053.25 421.642C1050.62 422.246 1048.99 424.876 1049.6 427.516C1050.2 430.157 1052.82 431.808 1055.45 431.204Z" fill="white"/>
<path d="M987.715 453.628C990.526 452.981 992.277 450.163 991.626 447.334C990.974 444.505 988.167 442.736 985.356 443.383C982.545 444.03 980.794 446.848 981.445 449.677C982.097 452.507 984.903 454.276 987.715 453.628Z" fill="white"/>
<path d="M990.444 319.58C992.13 319.191 993.18 317.501 992.789 315.804C992.399 314.108 990.715 313.047 989.029 313.435C987.343 313.823 986.293 315.513 986.684 317.21C987.074 318.907 988.758 319.968 990.444 319.58Z" fill="white"/>
<path d="M754.641 509.078C756.139 508.733 757.073 507.23 756.726 505.722C756.378 504.214 754.882 503.27 753.383 503.615C751.884 503.96 750.951 505.463 751.298 506.971C751.645 508.48 753.142 509.423 754.641 509.078Z" fill="white"/>
<path d="M873.328 417.743C875.014 417.355 876.065 415.665 875.674 413.968C875.283 412.271 873.6 411.21 871.914 411.598C870.228 411.987 869.178 413.677 869.568 415.374C869.959 417.071 871.642 418.132 873.328 417.743Z" fill="white"/>
<path d="M856.07 477.817C857.756 477.429 858.806 475.738 858.416 474.041C858.025 472.345 856.342 471.284 854.656 471.672C852.969 472.06 851.919 473.75 852.31 475.447C852.7 477.144 854.384 478.205 856.07 477.817Z" fill="white"/>
<path d="M958.402 521.871C960.463 521.396 961.747 519.33 961.27 517.255C960.792 515.18 958.734 513.883 956.672 514.357C954.611 514.832 953.327 516.899 953.804 518.973C954.282 521.048 956.34 522.346 958.402 521.871Z" fill="white"/>
<path d="M888.78 472.446C889.342 472.317 889.692 471.753 889.562 471.188C889.432 470.622 888.871 470.269 888.309 470.398C887.747 470.527 887.397 471.091 887.527 471.656C887.657 472.222 888.218 472.576 888.78 472.446Z" fill="white"/>
<path d="M522.448 616.996C522.517 614.288 520.39 612.031 517.698 611.954C515.006 611.877 512.767 614.01 512.698 616.718C512.63 619.425 514.756 621.683 517.449 621.759C520.141 621.836 522.379 619.703 522.448 616.996Z" fill="white"/>
<path d="M358.634 230.723C358.688 228.596 357.017 226.823 354.901 226.763C352.786 226.702 351.027 228.378 350.974 230.506C350.92 232.633 352.591 234.407 354.706 234.467C356.822 234.527 358.58 232.851 358.634 230.723Z" fill="white"/>
<path d="M575.767 588.484C575.802 587.131 574.739 586.002 573.393 585.964C572.048 585.926 570.929 586.992 570.894 588.345C570.86 589.698 571.923 590.827 573.269 590.865C574.614 590.903 575.733 589.837 575.767 588.484Z" fill="white"/>
<path d="M579.778 554.659C579.803 553.692 579.044 552.887 578.082 552.859C577.121 552.832 576.322 553.593 576.298 554.56C576.273 555.527 577.032 556.332 577.993 556.36C578.955 556.387 579.754 555.626 579.778 554.659Z" fill="white"/>
<path d="M1230.1 627.988C1232.53 627.427 1234.05 624.985 1233.48 622.533C1232.92 620.081 1230.49 618.548 1228.05 619.108C1225.62 619.669 1224.1 622.112 1224.66 624.564C1225.23 627.016 1227.66 628.549 1230.1 627.988Z" fill="white"/>
<path d="M1276.96 -76.5014L1201.32 76.1258L1282.94 140.409L1276.96 -76.5014Z" stroke="white" stroke-miterlimit="10" stroke-linecap="round" stroke-linejoin="round"/>
<path d="M1194.11 617.572L1198.69 538.121L1229.07 623.548L1194.11 617.572Z" stroke="white" stroke-miterlimit="10" stroke-linecap="round" stroke-linejoin="round"/>
<path d="M1076.39 529.952L1045.31 573.429L1047.1 503.61L1076.39 529.952Z" stroke="white" stroke-miterlimit="10" stroke-linecap="round" stroke-linejoin="round"/>
<path d="M986.536 448.505L1054.35 426.423L989.493 487.742L986.536 448.505Z" stroke="white" stroke-miterlimit="10" stroke-linecap="round" stroke-linejoin="round"/>
<path d="M1047.1 503.61L986.536 448.506L989.493 487.742L1047.1 503.61Z" stroke="white" stroke-miterlimit="10" stroke-linecap="round" stroke-linejoin="round"/>
<path d="M1165.09 236.944L1182.43 216.049L1165.26 70.0422L1165.09 236.944Z" stroke="white" stroke-miterlimit="10" stroke-linecap="round" stroke-linejoin="round"/>
<path d="M820.983 479.063L813.42 427.581L855.364 474.745L820.983 479.063Z" stroke="white" stroke-miterlimit="10" stroke-linecap="round" stroke-linejoin="round"/>
<path d="M872.623 414.672L813.42 427.581L820.983 479.063L872.623 414.672Z" stroke="white" stroke-miterlimit="10" stroke-linecap="round" stroke-linejoin="round"/>
<path d="M568.901 622.681L517.541 616.883L573.127 588.264L568.901 622.681Z" stroke="white" stroke-miterlimit="10" stroke-linecap="round" stroke-linejoin="round"/>
<path d="M525.955 594.448L517.541 616.883L568.901 622.681L525.955 594.448Z" stroke="white" stroke-miterlimit="10" stroke-linecap="round" stroke-linejoin="round"/>
<path d="M721.229 241.304L729.469 381.097L829.657 333.579L721.229 241.304Z" stroke="white" stroke-miterlimit="10" stroke-linecap="round" stroke-linejoin="round"/>
<path d="M1006.89 341.33L989.738 316.508L944.39 349.243L1006.89 341.33Z" stroke="white" stroke-miterlimit="10" stroke-linecap="round" stroke-linejoin="round"/>
<path d="M1093.55 -225.957L1201.32 76.126L1276.96 -76.5012L1093.55 -225.957Z" stroke="white" stroke-miterlimit="10" stroke-linecap="round" stroke-linejoin="round"/>
<path d="M1359.77 953.799L1286.05 729.824L1416.18 827.892L1359.77 953.799Z" stroke="white" stroke-miterlimit="10" stroke-linecap="round" stroke-linejoin="round"/>
<path d="M1157.64 316.337L1182.44 216.049L1165.09 236.944L1157.64 316.337Z" stroke="white" stroke-miterlimit="10" stroke-linecap="round" stroke-linejoin="round"/>
<path d="M1165.26 70.0424L1201.32 76.1261L1276.96 -76.5011L1165.26 70.0424Z" stroke="white" stroke-miterlimit="10" stroke-linecap="round" stroke-linejoin="round"/>
<path d="M1006.89 341.33L1054.35 426.423L1157.64 316.337L1006.89 341.33Z" stroke="white" stroke-miterlimit="10" stroke-linecap="round" stroke-linejoin="round"/>
<path d="M1166.35 394.526L1006.89 341.33L1157.64 316.337L1166.35 394.526Z" stroke="white" stroke-miterlimit="10" stroke-linecap="round" stroke-linejoin="round"/>
<path d="M1076.39 529.952L1054.35 426.423L1198.69 538.121L1076.39 529.952Z" stroke="white" stroke-miterlimit="10" stroke-linecap="round" stroke-linejoin="round"/>
<path d="M1202.56 755.159L1416.18 827.893L1286.05 729.824L1202.56 755.159Z" stroke="white" stroke-miterlimit="10" stroke-linecap="round" stroke-linejoin="round"/>
<path d="M1036.5 628.319L1194.11 617.572L1202.56 755.159L1036.5 628.319Z" stroke="white" stroke-miterlimit="10" stroke-linecap="round" stroke-linejoin="round"/>
<path d="M838.951 -63.7794L1276.96 -76.5012L1093.55 -225.957L838.951 -63.7794Z" stroke="white" stroke-miterlimit="10" stroke-linecap="round" stroke-linejoin="round"/>
<path d="M721.229 241.304L460.395 103.198L727.591 48.523L721.229 241.304Z" stroke="white" stroke-miterlimit="10" stroke-linecap="round" stroke-linejoin="round"/>
<path d="M927.583 113.248L838.951 -63.7794L1093.55 -225.957L927.583 113.248Z" stroke="white" stroke-miterlimit="10" stroke-linecap="round" stroke-linejoin="round"/>
<path d="M989.739 316.508L927.584 113.247L727.592 48.5229L989.739 316.508Z" stroke="white" stroke-miterlimit="10" stroke-linecap="round" stroke-linejoin="round"/>
<path d="M550.086 -129.622L460.394 103.198L721.229 241.304L550.086 -129.622Z" stroke="white" stroke-miterlimit="10" stroke-linecap="round" stroke-linejoin="round"/>
<path d="M1165.09 236.944L989.738 316.508L927.583 113.247L1165.09 236.944Z" stroke="white" stroke-miterlimit="10" stroke-linecap="round" stroke-linejoin="round"/>
<path d="M1165.26 70.0422L989.738 316.508L927.583 113.247L1165.26 70.0422Z" stroke="white" stroke-miterlimit="10" stroke-linecap="round" stroke-linejoin="round"/>
<path d="M355.026 230.664L727.591 48.523L460.394 103.198L355.026 230.664Z" stroke="white" stroke-miterlimit="10" stroke-linecap="round" stroke-linejoin="round"/>
<path d="M410.304 -5.74269L460.394 103.198L727.591 48.5231L410.304 -5.74269Z" stroke="white" stroke-miterlimit="10" stroke-linecap="round" stroke-linejoin="round"/>
<path d="M410.304 -5.7427L-50.2029 -135.277" stroke="white" stroke-miterlimit="10" stroke-linecap="round" stroke-linejoin="round"/>
<path d="M721.229 241.304L927.583 113.247L727.591 48.5231L721.229 241.304Z" stroke="white" stroke-miterlimit="10" stroke-linecap="round" stroke-linejoin="round"/>
<path d="M1076.39 529.952L1202.56 755.159L1036.5 628.319L1076.39 529.952Z" stroke="white" stroke-miterlimit="10" stroke-linecap="round" stroke-linejoin="round"/>
<path d="M1045.31 573.429L1036.5 628.32L1194.11 617.572L1045.31 573.429Z" stroke="white" stroke-miterlimit="10" stroke-linecap="round" stroke-linejoin="round"/>
<path d="M944.391 349.243L986.536 448.506L875.338 414.047L944.391 349.243Z" stroke="white" stroke-miterlimit="10" stroke-linecap="round" stroke-linejoin="round"/>
<path d="M727.591 48.5231L838.951 -63.7794L460.394 103.198L727.591 48.5231Z" stroke="white" stroke-miterlimit="10" stroke-linecap="round" stroke-linejoin="round"/>
</svg>
