<svg width="1440" height="730" viewBox="0 0 1440 730" fill="none" xmlns="http://www.w3.org/2000/svg">
<path d="M1384.99 336.87C1385.9 336.941 1386.69 336.259 1386.76 335.346C1386.83 334.433 1386.16 333.635 1385.25 333.563C1384.34 333.492 1383.55 334.174 1383.48 335.087C1383.41 336 1384.08 336.798 1384.99 336.87Z" fill="#B9C4E1"/>
<path d="M1384.18 318.629C1385.67 318.746 1386.98 317.625 1387.09 316.125C1387.21 314.625 1386.1 313.314 1384.61 313.197C1383.12 313.08 1381.81 314.201 1381.7 315.701C1381.58 317.201 1382.69 318.511 1384.18 318.629Z" fill="#B9C4E1"/>
<path d="M1383.5 295.764C1384.47 295.841 1385.32 295.11 1385.4 294.131C1385.48 293.153 1384.75 292.298 1383.78 292.222C1382.81 292.146 1381.96 292.877 1381.88 293.855C1381.8 294.833 1382.53 295.688 1383.5 295.764Z" fill="#B9C4E1"/>
<path d="M1377.4 272.712C1378.12 272.768 1378.74 272.232 1378.79 271.514C1378.85 270.797 1378.32 270.17 1377.61 270.114C1376.89 270.058 1376.27 270.594 1376.21 271.311C1376.16 272.029 1376.69 272.656 1377.4 272.712Z" fill="#B9C4E1"/>
<path d="M1371.55 251.104C1372.32 251.165 1373 250.58 1373.07 249.798C1373.13 249.015 1372.55 248.331 1371.77 248.27C1370.99 248.209 1370.31 248.794 1370.25 249.576C1370.19 250.359 1370.77 251.043 1371.55 251.104Z" fill="#B9C4E1"/>
<path d="M1360.35 225.392C1360.73 225.423 1361.07 225.131 1361.1 224.739C1361.14 224.348 1360.85 224.006 1360.46 223.976C1360.07 223.945 1359.73 224.238 1359.7 224.629C1359.67 225.02 1359.96 225.362 1360.35 225.392Z" fill="#B9C4E1"/>
<path d="M1352.92 211.74C1353.5 211.785 1354.01 211.347 1354.06 210.76C1354.1 210.174 1353.67 209.661 1353.09 209.615C1352.5 209.569 1351.99 210.008 1351.95 210.594C1351.9 211.181 1352.34 211.694 1352.92 211.74Z" fill="#B9C4E1"/>
<path d="M1348.81 203.932C1349.33 203.973 1349.78 203.583 1349.82 203.062C1349.86 202.54 1349.48 202.084 1348.96 202.044C1348.44 202.003 1347.99 202.393 1347.95 202.914C1347.91 203.436 1348.29 203.891 1348.81 203.932Z" fill="#B9C4E1"/>
<path d="M1334.33 183.904C1334.72 183.934 1335.06 183.642 1335.09 183.251C1335.12 182.86 1334.83 182.518 1334.44 182.487C1334.05 182.457 1333.71 182.749 1333.68 183.14C1333.65 183.531 1333.94 183.873 1334.33 183.904Z" fill="#B9C4E1"/>
<path d="M1318.96 166.181C1319.54 166.227 1320.05 165.789 1320.1 165.202C1320.15 164.615 1319.71 164.103 1319.13 164.057C1318.54 164.011 1318.03 164.449 1317.99 165.036C1317.94 165.623 1318.38 166.135 1318.96 166.181Z" fill="#B9C4E1"/>
<path d="M1301.05 149.21C1301.51 149.246 1301.9 148.905 1301.94 148.448C1301.97 147.992 1301.64 147.593 1301.18 147.558C1300.73 147.522 1300.33 147.863 1300.3 148.319C1300.26 148.776 1300.6 149.175 1301.05 149.21Z" fill="#B9C4E1"/>
<path d="M1280.67 133.708C1281.06 133.738 1281.4 133.446 1281.43 133.055C1281.46 132.664 1281.17 132.322 1280.78 132.291C1280.39 132.261 1280.05 132.553 1280.02 132.944C1279.99 133.335 1280.28 133.677 1280.67 133.708Z" fill="#B9C4E1"/>
<path d="M1258.22 121.964C1259.51 122.066 1260.65 121.091 1260.75 119.787C1260.85 118.482 1259.89 117.343 1258.59 117.241C1257.29 117.139 1256.16 118.114 1256.06 119.418C1255.96 120.722 1256.92 121.862 1258.22 121.964Z" fill="#B9C4E1"/>
<path d="M1261.48 102.974C1262.52 103.055 1263.43 102.275 1263.51 101.232C1263.59 100.189 1262.82 99.2767 1261.78 99.1952C1260.74 99.1137 1259.84 99.8935 1259.75 100.937C1259.67 101.98 1260.45 102.892 1261.48 102.974Z" fill="#B9C4E1"/>
<path d="M1213.09 102.853C1214 102.924 1214.79 102.242 1214.86 101.329C1214.94 100.416 1214.26 99.6181 1213.35 99.5468C1212.44 99.4755 1211.65 100.158 1211.58 101.071C1211.51 101.984 1212.18 102.782 1213.09 102.853Z" fill="#B9C4E1"/>
<path d="M1153.89 91.5461C1154.22 91.5716 1154.5 91.328 1154.53 91.0021C1154.55 90.6761 1154.31 90.3913 1153.99 90.3658C1153.66 90.3404 1153.38 90.584 1153.35 90.9099C1153.33 91.2358 1153.57 91.5207 1153.89 91.5461Z" fill="#B9C4E1"/>
<path d="M1126.14 67.623C1126.66 67.6638 1127.12 67.274 1127.16 66.7525C1127.2 66.231 1126.81 65.7753 1126.29 65.7345C1125.77 65.6938 1125.32 66.0835 1125.28 66.605C1125.24 67.1265 1125.63 67.5823 1126.14 67.623Z" fill="#B9C4E1"/>
<path d="M1145.7 93.6347C1146.09 93.6652 1146.43 93.3729 1146.46 92.9818C1146.49 92.5907 1146.2 92.2489 1145.81 92.2183C1145.43 92.1878 1145.09 92.4801 1145.05 92.8712C1145.02 93.2623 1145.31 93.6042 1145.7 93.6347Z" fill="#B9C4E1"/>
<path d="M1131.44 94.8902C1132.22 94.9513 1132.9 94.3665 1132.96 93.5839C1133.02 92.8014 1132.44 92.1174 1131.66 92.0563C1130.88 91.9952 1130.2 92.58 1130.14 93.3626C1130.08 94.1451 1130.66 94.8291 1131.44 94.8902Z" fill="#B9C4E1"/>
<path d="M1105.44 96.7665C1105.83 96.797 1106.17 96.5047 1106.2 96.1136C1106.23 95.7225 1105.94 95.3806 1105.55 95.3501C1105.16 95.3195 1104.82 95.6118 1104.79 96.003C1104.76 96.3941 1105.05 96.7359 1105.44 96.7665Z" fill="#B9C4E1"/>
<path d="M1057.09 112.688C1058.38 112.79 1059.52 111.815 1059.62 110.511C1059.72 109.207 1058.75 108.067 1057.46 107.965C1056.16 107.863 1055.03 108.838 1054.92 110.142C1054.82 111.446 1055.79 112.586 1057.09 112.688Z" fill="#B9C4E1"/>
<path d="M1068.53 106.697C1068.79 106.717 1069.02 106.523 1069.04 106.262C1069.06 106.001 1068.87 105.773 1068.61 105.753C1068.35 105.732 1068.12 105.927 1068.1 106.188C1068.08 106.449 1068.28 106.677 1068.53 106.697Z" fill="#B9C4E1"/>
<path d="M1040.81 119.962C1041.33 120.003 1041.78 119.613 1041.83 119.092C1041.87 118.57 1041.48 118.115 1040.96 118.074C1040.44 118.033 1039.99 118.423 1039.95 118.944C1039.91 119.466 1040.29 119.922 1040.81 119.962Z" fill="#B9C4E1"/>
<path d="M1020.13 130.811C1020.52 130.842 1020.86 130.55 1020.89 130.159C1020.92 129.767 1020.63 129.426 1020.24 129.395C1019.85 129.364 1019.51 129.657 1019.48 130.048C1019.45 130.439 1019.74 130.781 1020.13 130.811Z" fill="#B9C4E1"/>
<path d="M1009.52 138.175C1009.84 138.2 1010.12 137.957 1010.15 137.631C1010.17 137.305 1009.93 137.02 1009.61 136.995C1009.28 136.969 1009 137.213 1008.98 137.539C1008.95 137.865 1009.19 138.149 1009.52 138.175Z" fill="#B9C4E1"/>
<path d="M999.628 148.328C1000.92 148.43 1002.06 147.455 1002.16 146.151C1002.26 144.847 1001.3 143.707 999.999 143.605C998.703 143.503 997.57 144.478 997.467 145.782C997.365 147.087 998.332 148.226 999.628 148.328Z" fill="#B9C4E1"/>
<path d="M976.941 166.622C977.589 166.673 978.155 166.186 978.206 165.534C978.258 164.882 977.774 164.313 977.126 164.262C976.479 164.211 975.912 164.698 975.861 165.35C975.81 166.002 976.293 166.571 976.941 166.622Z" fill="#B9C4E1"/>
<path d="M959.805 189.394C960.842 189.476 961.749 188.696 961.831 187.652C961.913 186.609 961.139 185.697 960.102 185.616C959.065 185.534 958.158 186.314 958.076 187.357C957.994 188.401 958.768 189.313 959.805 189.394Z" fill="#B9C4E1"/>
<path d="M944.852 208.415C945.306 208.451 945.702 208.11 945.738 207.653C945.774 207.197 945.435 206.798 944.982 206.763C944.529 206.727 944.132 207.068 944.096 207.524C944.06 207.981 944.399 208.379 944.852 208.415Z" fill="#B9C4E1"/>
<path d="M931.865 236.978C932.578 237.034 933.201 236.498 933.258 235.78C933.314 235.063 932.782 234.436 932.069 234.38C931.356 234.324 930.733 234.86 930.676 235.577C930.62 236.295 931.152 236.922 931.865 236.978Z" fill="#B9C4E1"/>
<path d="M925.172 251.539C925.56 251.57 925.9 251.278 925.931 250.887C925.962 250.496 925.672 250.154 925.283 250.123C924.895 250.093 924.555 250.385 924.524 250.776C924.493 251.167 924.783 251.509 925.172 251.539Z" fill="#B9C4E1"/>
<path d="M921.394 262.054C922.237 262.121 922.974 261.487 923.04 260.639C923.107 259.792 922.478 259.051 921.636 258.984C920.793 258.918 920.056 259.552 919.99 260.4C919.923 261.247 920.552 261.988 921.394 262.054Z" fill="#B9C4E1"/>
<path d="M916.218 288.854C917.45 288.951 918.527 288.025 918.624 286.786C918.721 285.547 917.802 284.464 916.571 284.367C915.34 284.271 914.263 285.197 914.166 286.436C914.068 287.675 914.987 288.758 916.218 288.854Z" fill="#B9C4E1"/>
<path d="M912.195 308.497C912.584 308.528 912.924 308.235 912.955 307.844C912.985 307.453 912.695 307.111 912.307 307.081C911.918 307.05 911.578 307.342 911.547 307.733C911.516 308.125 911.807 308.466 912.195 308.497Z" fill="#B9C4E1"/>
<path d="M912.151 337.602C912.928 337.663 913.608 337.078 913.67 336.295C913.731 335.513 913.151 334.829 912.373 334.768C911.596 334.707 910.916 335.291 910.854 336.074C910.793 336.857 911.373 337.54 912.151 337.602Z" fill="#B9C4E1"/>
<path d="M920.898 408.028C921.546 408.078 922.113 407.591 922.164 406.939C922.215 406.288 921.731 405.718 921.084 405.667C920.436 405.616 919.869 406.103 919.818 406.755C919.767 407.407 920.251 407.977 920.898 408.028Z" fill="#B9C4E1"/>
<path d="M952.89 453.076C953.668 453.137 954.348 452.552 954.409 451.77C954.471 450.987 953.89 450.303 953.113 450.242C952.335 450.181 951.655 450.766 951.594 451.548C951.532 452.331 952.113 453.015 952.89 453.076Z" fill="#B9C4E1"/>
<path d="M942.058 478.243C942.771 478.299 943.395 477.763 943.451 477.046C943.507 476.328 942.975 475.701 942.263 475.645C941.55 475.589 940.926 476.126 940.87 476.843C940.814 477.56 941.346 478.187 942.058 478.243Z" fill="#B9C4E1"/>
<path d="M969.966 479.13C970.744 479.191 971.424 478.606 971.485 477.824C971.547 477.041 970.966 476.357 970.189 476.296C969.411 476.235 968.731 476.82 968.67 477.602C968.608 478.385 969.188 479.069 969.966 479.13Z" fill="#B9C4E1"/>
<path d="M978.575 513.785C979.806 513.882 980.883 512.956 980.98 511.717C981.077 510.478 980.158 509.395 978.927 509.298C977.696 509.201 976.619 510.127 976.522 511.366C976.424 512.605 977.343 513.688 978.575 513.785Z" fill="#B9C4E1"/>
<path d="M1010.2 524.468C1010.46 524.489 1010.68 524.294 1010.7 524.033C1010.72 523.772 1010.53 523.544 1010.27 523.524C1010.01 523.504 1009.79 523.698 1009.77 523.959C1009.75 524.22 1009.94 524.448 1010.2 524.468Z" fill="#B9C4E1"/>
<path d="M1024.65 535.821C1025.17 535.862 1025.62 535.472 1025.66 534.951C1025.7 534.429 1025.32 533.973 1024.8 533.933C1024.28 533.892 1023.83 534.282 1023.79 534.803C1023.75 535.325 1024.13 535.781 1024.65 535.821Z" fill="#B9C4E1"/>
<path d="M1053.8 549.4C1054.06 549.42 1054.29 549.225 1054.31 548.965C1054.33 548.704 1054.14 548.476 1053.88 548.456C1053.62 548.435 1053.39 548.63 1053.37 548.891C1053.35 549.152 1053.55 549.379 1053.8 549.4Z" fill="#B9C4E1"/>
<path d="M1065.88 554.982C1066.27 555.013 1066.61 554.72 1066.64 554.329C1066.67 553.938 1066.38 553.596 1065.99 553.566C1065.6 553.535 1065.26 553.828 1065.23 554.219C1065.2 554.61 1065.49 554.952 1065.88 554.982Z" fill="#B9C4E1"/>
<path d="M1089.77 554.366C1090.81 554.447 1091.72 553.668 1091.8 552.624C1091.88 551.581 1091.11 550.669 1090.07 550.588C1089.03 550.506 1088.13 551.286 1088.04 552.329C1087.96 553.373 1088.74 554.284 1089.77 554.366Z" fill="#B9C4E1"/>
<path d="M1110.89 566.599C1111.4 566.639 1111.86 566.25 1111.9 565.728C1111.94 565.207 1111.55 564.751 1111.03 564.71C1110.52 564.669 1110.06 565.059 1110.02 565.581C1109.98 566.102 1110.37 566.558 1110.89 566.599Z" fill="#B9C4E1"/>
<path d="M1195.57 566.009C1196.48 566.08 1197.27 565.398 1197.35 564.485C1197.42 563.572 1196.74 562.774 1195.83 562.703C1194.93 562.631 1194.13 563.314 1194.06 564.227C1193.99 565.14 1194.67 565.938 1195.57 566.009Z" fill="#B9C4E1"/>
<path d="M1225.71 558.042C1226.75 558.123 1227.66 557.343 1227.74 556.3C1227.82 555.257 1227.05 554.345 1226.01 554.263C1224.97 554.182 1224.07 554.962 1223.98 556.005C1223.9 557.048 1224.67 557.96 1225.71 558.042Z" fill="#B9C4E1"/>
<path d="M1243.1 550.141C1243.42 550.166 1243.7 549.923 1243.73 549.597C1243.75 549.271 1243.51 548.986 1243.19 548.961C1242.86 548.935 1242.58 549.179 1242.56 549.505C1242.53 549.831 1242.77 550.115 1243.1 550.141Z" fill="#B9C4E1"/>
<path d="M1266.39 537.596C1266.72 537.622 1267 537.378 1267.03 537.052C1267.05 536.727 1266.81 536.442 1266.49 536.416C1266.16 536.391 1265.88 536.634 1265.85 536.96C1265.83 537.286 1266.07 537.571 1266.39 537.596Z" fill="#B9C4E1"/>
<path d="M1286.95 541.827C1287.99 541.908 1288.9 541.129 1288.98 540.085C1289.06 539.042 1288.29 538.13 1287.25 538.049C1286.21 537.967 1285.31 538.747 1285.23 539.79C1285.14 540.834 1285.92 541.746 1286.95 541.827Z" fill="#B9C4E1"/>
<path d="M1304.05 510.617C1304.5 510.652 1304.9 510.311 1304.93 509.855C1304.97 509.399 1304.63 509 1304.18 508.964C1303.72 508.929 1303.33 509.27 1303.29 509.726C1303.25 510.182 1303.59 510.581 1304.05 510.617Z" fill="#B9C4E1"/>
<path d="M1310.85 505.212C1311.56 505.268 1312.18 504.732 1312.24 504.014C1312.29 503.297 1311.76 502.67 1311.05 502.614C1310.34 502.558 1309.71 503.094 1309.66 503.811C1309.6 504.529 1310.13 505.156 1310.85 505.212Z" fill="#B9C4E1"/>
<path d="M1332.76 481.747C1333.92 481.839 1334.94 480.962 1335.04 479.788C1335.13 478.614 1334.26 477.588 1333.09 477.496C1331.93 477.405 1330.91 478.282 1330.81 479.456C1330.72 480.63 1331.59 481.655 1332.76 481.747Z" fill="#B9C4E1"/>
<path d="M1345.92 462.941C1346.31 462.971 1346.65 462.679 1346.68 462.288C1346.71 461.897 1346.42 461.555 1346.03 461.524C1345.65 461.494 1345.31 461.786 1345.27 462.177C1345.24 462.568 1345.53 462.91 1345.92 462.941Z" fill="#B9C4E1"/>
<path d="M1357.34 443.879C1357.6 443.899 1357.82 443.704 1357.84 443.443C1357.86 443.183 1357.67 442.955 1357.41 442.934C1357.15 442.914 1356.93 443.109 1356.91 443.37C1356.88 443.63 1357.08 443.858 1357.34 443.879Z" fill="#B9C4E1"/>
<path d="M1370.77 414.163C1371.29 414.204 1371.74 413.814 1371.78 413.293C1371.82 412.771 1371.44 412.315 1370.92 412.275C1370.4 412.234 1369.95 412.624 1369.91 413.145C1369.86 413.667 1370.25 414.122 1370.77 414.163Z" fill="#B9C4E1"/>
<path d="M1378.25 388.139C1379.15 388.21 1379.95 387.528 1380.02 386.615C1380.09 385.702 1379.41 384.904 1378.51 384.833C1377.6 384.762 1376.8 385.444 1376.73 386.357C1376.66 387.27 1377.34 388.068 1378.25 388.139Z" fill="#B9C4E1"/>
<path d="M1421.4 393.313C1422.44 393.395 1423.34 392.615 1423.42 391.571C1423.51 390.528 1422.73 389.616 1421.7 389.535C1420.66 389.453 1419.75 390.233 1419.67 391.276C1419.59 392.32 1420.36 393.232 1421.4 393.313Z" fill="#B9C4E1"/>
<path d="M1385.63 349.751C1385.82 349.766 1385.99 349.62 1386.01 349.424C1386.03 349.229 1385.88 349.058 1385.69 349.043C1385.49 349.027 1385.32 349.173 1385.31 349.369C1385.29 349.565 1385.44 349.735 1385.63 349.751Z" fill="#B9C4E1"/>
<path d="M718.167 123.234C719.334 123.326 720.354 122.449 720.446 121.275C720.538 120.101 719.668 119.075 718.501 118.983C717.335 118.892 716.315 119.769 716.222 120.943C716.13 122.117 717.001 123.142 718.167 123.234Z" fill="#B9C4E1"/>
<path d="M1028.19 606.433C1028.84 606.484 1029.41 605.996 1029.46 605.345C1029.51 604.693 1029.02 604.123 1028.38 604.072C1027.73 604.021 1027.16 604.508 1027.11 605.16C1027.06 605.812 1027.54 606.382 1028.19 606.433Z" fill="#B9C4E1"/>
<path d="M591.437 344.826C592.344 344.898 593.137 344.215 593.209 343.302C593.281 342.389 592.604 341.591 591.696 341.52C590.789 341.449 589.996 342.131 589.924 343.044C589.852 343.957 590.529 344.755 591.437 344.826Z" fill="#B9C4E1"/>
<path d="M867.825 173.135C868.603 173.196 869.283 172.611 869.345 171.829C869.406 171.046 868.826 170.362 868.048 170.301C867.27 170.24 866.59 170.825 866.529 171.607C866.467 172.39 867.048 173.074 867.825 173.135Z" fill="#B9C4E1"/>
<path d="M713.101 82.5605C714.008 82.6318 714.802 81.9495 714.873 81.0366C714.945 80.1236 714.268 79.3257 713.361 79.2544C712.454 79.1831 711.66 79.8654 711.588 80.7783C711.517 81.6913 712.194 82.4892 713.101 82.5605Z" fill="#B9C4E1"/>
<path d="M809.892 132.226C810.799 132.297 811.593 131.615 811.664 130.702C811.736 129.789 811.059 128.991 810.152 128.92C809.245 128.849 808.451 129.531 808.379 130.444C808.308 131.357 808.985 132.155 809.892 132.226Z" fill="#B9C4E1"/>
<path d="M747.289 138.71C747.742 138.746 748.139 138.405 748.175 137.948C748.21 137.492 747.872 137.093 747.419 137.058C746.965 137.022 746.569 137.363 746.533 137.819C746.497 138.276 746.835 138.674 747.289 138.71Z" fill="#B9C4E1"/>
<path d="M590.102 22.3996C591.139 22.4811 592.046 21.7013 592.128 20.6579C592.21 19.6145 591.436 18.7026 590.399 18.6211C589.362 18.5396 588.455 19.3194 588.373 20.3628C588.291 21.4062 589.065 22.3181 590.102 22.3996Z" fill="#B9C4E1"/>
<path d="M567.299 186.342C568.271 186.419 569.121 185.687 569.198 184.709C569.275 183.731 568.55 182.876 567.578 182.8C566.606 182.723 565.756 183.454 565.679 184.433C565.602 185.411 566.327 186.266 567.299 186.342Z" fill="#B9C4E1"/>
<path d="M492.875 320.684C494.107 320.78 495.184 319.854 495.281 318.615C495.378 317.376 494.459 316.293 493.228 316.197C491.997 316.1 490.92 317.026 490.823 318.265C490.725 319.504 491.644 320.587 492.875 320.684Z" fill="#B9C4E1"/>
<path d="M818.718 78.506C819.172 78.5416 819.568 78.2006 819.604 77.7443C819.64 77.288 819.301 76.8892 818.848 76.8535C818.395 76.8179 817.998 77.1589 817.962 77.6152C817.926 78.0715 818.265 78.4703 818.718 78.506Z" fill="#B9C4E1"/>
<path d="M770.421 56.1756C771.004 56.2214 771.514 55.783 771.56 55.1963C771.606 54.6096 771.171 54.0969 770.588 54.051C770.005 54.0052 769.495 54.4437 769.449 55.0303C769.403 55.617 769.838 56.1298 770.421 56.1756Z" fill="#B9C4E1"/>
<path d="M842.878 59.4953C843.202 59.5207 843.485 59.2772 843.511 58.9512C843.536 58.6253 843.295 58.3404 842.971 58.315C842.647 58.2895 842.364 58.5331 842.338 58.859C842.312 59.185 842.554 59.4698 842.878 59.4953Z" fill="#B9C4E1"/>
<path d="M791.012 13.4793C791.66 13.5302 792.226 13.043 792.278 12.3912C792.329 11.7393 791.845 11.1696 791.198 11.1187C790.55 11.0678 789.983 11.5549 789.932 12.2068C789.881 12.8587 790.364 13.4284 791.012 13.4793Z" fill="#B9C4E1"/>
<path d="M776.851 238.693C777.24 238.723 777.579 238.431 777.61 238.04C777.641 237.649 777.351 237.307 776.962 237.276C776.574 237.246 776.234 237.538 776.203 237.929C776.172 238.32 776.462 238.662 776.851 238.693Z" fill="#B9C4E1"/>
<path d="M813.896 234.477C814.803 234.548 815.596 233.866 815.668 232.953C815.74 232.04 815.063 231.242 814.155 231.171C813.248 231.099 812.455 231.782 812.383 232.695C812.311 233.608 812.988 234.405 813.896 234.477Z" fill="#B9C4E1"/>
<path d="M699.31 248.993C699.699 249.023 700.039 248.731 700.069 248.34C700.1 247.949 699.81 247.607 699.421 247.577C699.033 247.546 698.693 247.838 698.662 248.229C698.631 248.621 698.921 248.962 699.31 248.993Z" fill="#B9C4E1"/>
<path d="M787.546 180.724C787.999 180.76 788.396 180.419 788.432 179.962C788.468 179.506 788.129 179.107 787.676 179.072C787.222 179.036 786.826 179.377 786.79 179.833C786.754 180.29 787.093 180.688 787.546 180.724Z" fill="#B9C4E1"/>
<path d="M788.294 193.734C789.202 193.805 789.995 193.123 790.067 192.21C790.139 191.297 789.461 190.499 788.554 190.427C787.647 190.356 786.854 191.038 786.782 191.951C786.71 192.864 787.387 193.662 788.294 193.734Z" fill="#B9C4E1"/>
<path d="M901.257 207.364C901.775 207.405 902.228 207.015 902.269 206.494C902.31 205.972 901.924 205.517 901.405 205.476C900.887 205.435 900.434 205.825 900.393 206.346C900.352 206.868 900.739 207.324 901.257 207.364Z" fill="#B9C4E1"/>
<path d="M955.688 81.0754C956.725 81.1569 957.632 80.3771 957.714 79.3337C957.796 78.2903 957.022 77.3785 955.985 77.297C954.948 77.2155 954.042 77.9952 953.96 79.0386C953.878 80.082 954.651 80.9939 955.688 81.0754Z" fill="#B9C4E1"/>
<path d="M857.255 106.366C857.644 106.396 857.983 106.104 858.014 105.713C858.045 105.322 857.755 104.98 857.366 104.949C856.978 104.919 856.638 105.211 856.607 105.602C856.576 105.993 856.866 106.335 857.255 106.366Z" fill="#B9C4E1"/>
<path d="M1437.19 266.006C1438.03 266.072 1438.77 265.439 1438.84 264.591C1438.9 263.743 1438.27 263.002 1437.43 262.936C1436.59 262.87 1435.85 263.503 1435.79 264.351C1435.72 265.199 1436.35 265.94 1437.19 266.006Z" fill="#B9C4E1"/>
<path d="M914.338 98.0222C915.051 98.0782 915.674 97.5421 915.731 96.8248C915.787 96.1075 915.255 95.4806 914.542 95.4245C913.829 95.3685 913.206 95.9046 913.149 96.6219C913.093 97.3393 913.625 97.9662 914.338 98.0222Z" fill="#B9C4E1"/>
<path d="M970.127 28.034C970.581 28.0697 970.977 27.7287 971.013 27.2723C971.049 26.816 970.711 26.4172 970.257 26.3816C969.804 26.346 969.407 26.687 969.371 27.1433C969.336 27.5996 969.674 27.9984 970.127 28.034Z" fill="#B9C4E1"/>
<path d="M947.481 391.227C947.935 391.263 948.331 390.922 948.367 390.466C948.403 390.009 948.065 389.61 947.611 389.575C947.158 389.539 946.761 389.88 946.725 390.336C946.689 390.793 947.028 391.192 947.481 391.227Z" fill="#B9C4E1"/>
<path d="M1003.81 344.449C1004.13 344.475 1004.41 344.231 1004.44 343.905C1004.47 343.579 1004.22 343.294 1003.9 343.269C1003.58 343.244 1003.29 343.487 1003.27 343.813C1003.24 344.139 1003.48 344.424 1003.81 344.449Z" fill="#B9C4E1"/>
<path d="M1411.1 488.262C1412.59 488.379 1413.9 487.258 1414.01 485.758C1414.13 484.258 1413.02 482.947 1411.53 482.83C1410.04 482.713 1408.73 483.834 1408.62 485.334C1408.5 486.834 1409.61 488.145 1411.1 488.262Z" fill="#B9C4E1"/>
<path d="M1409.24 441.424C1410.01 441.485 1410.69 440.9 1410.75 440.118C1410.82 439.335 1410.24 438.651 1409.46 438.59C1408.68 438.529 1408 439.114 1407.94 439.897C1407.88 440.679 1408.46 441.363 1409.24 441.424Z" fill="#B9C4E1"/>
<path d="M979.619 218.158C980.526 218.23 981.32 217.547 981.392 216.634C981.463 215.721 980.786 214.923 979.879 214.852C978.972 214.781 978.178 215.463 978.107 216.376C978.035 217.289 978.712 218.087 979.619 218.158Z" fill="#B9C4E1"/>
<path d="M1023.57 99.005C1024.35 99.0661 1025.03 98.4812 1025.09 97.6987C1025.15 96.9162 1024.57 96.2322 1023.8 96.1711C1023.02 96.11 1022.34 96.6948 1022.28 97.4774C1022.22 98.2599 1022.8 98.9438 1023.57 99.005Z" fill="#B9C4E1"/>
<path d="M849.334 250.687C849.982 250.737 850.548 250.25 850.599 249.598C850.651 248.947 850.167 248.377 849.519 248.326C848.872 248.275 848.305 248.762 848.254 249.414C848.203 250.066 848.686 250.636 849.334 250.687Z" fill="#B9C4E1"/>
<path d="M948.787 183.894C949.888 183.981 950.852 183.153 950.939 182.044C951.026 180.935 950.204 179.966 949.102 179.88C948.001 179.793 947.037 180.622 946.95 181.73C946.863 182.839 947.685 183.808 948.787 183.894Z" fill="#B9C4E1"/>
<path d="M1318.7 115.431C1319.22 115.471 1319.67 115.082 1319.71 114.56C1319.75 114.039 1319.37 113.583 1318.85 113.542C1318.33 113.501 1317.88 113.891 1317.84 114.413C1317.8 114.934 1318.18 115.39 1318.7 115.431Z" fill="#B9C4E1"/>
<path d="M799.092 263.609C800.259 263.7 801.279 262.823 801.371 261.649C801.464 260.476 800.593 259.45 799.427 259.358C798.26 259.266 797.24 260.144 797.148 261.317C797.055 262.491 797.926 263.517 799.092 263.609Z" fill="#B9C4E1"/>
<path d="M779.52 445.032C780.232 445.088 780.856 444.552 780.912 443.835C780.969 443.117 780.437 442.49 779.724 442.434C779.011 442.378 778.388 442.915 778.331 443.632C778.275 444.349 778.807 444.976 779.52 445.032Z" fill="#B9C4E1"/>
<path d="M767.892 462.295C768.41 462.336 768.864 461.946 768.905 461.424C768.946 460.903 768.559 460.447 768.041 460.406C767.523 460.366 767.069 460.755 767.028 461.277C766.987 461.798 767.374 462.254 767.892 462.295Z" fill="#B9C4E1"/>
<path d="M1204.03 105.467C1204.62 105.512 1205.13 105.074 1205.17 104.487C1205.22 103.901 1204.78 103.388 1204.2 103.342C1203.62 103.296 1203.11 103.735 1203.06 104.321C1203.01 104.908 1203.45 105.421 1204.03 105.467Z" fill="#B9C4E1"/>
<path d="M1155.65 91.6843C1156.11 91.7199 1156.5 91.3789 1156.54 90.9226C1156.58 90.4663 1156.24 90.0675 1155.78 90.0318C1155.33 89.9962 1154.93 90.3372 1154.9 90.7935C1154.86 91.2498 1155.2 91.6486 1155.65 91.6843Z" fill="#B9C4E1"/>
<path d="M1175.87 585.369C1176.52 585.42 1177.09 584.933 1177.14 584.281C1177.19 583.629 1176.7 583.06 1176.06 583.009C1175.41 582.958 1174.84 583.445 1174.79 584.097C1174.74 584.749 1175.22 585.318 1175.87 585.369Z" fill="#B9C4E1"/>
<path d="M1331.5 71.1717C1332.09 71.2175 1332.6 70.7791 1332.64 70.1924C1332.69 69.6057 1332.25 69.093 1331.67 69.0471C1331.09 69.0013 1330.58 69.4398 1330.53 70.0264C1330.49 70.6131 1330.92 71.1259 1331.5 71.1717Z" fill="#B9C4E1"/>
<path d="M1019.56 525.442C1019.95 525.472 1020.29 525.18 1020.32 524.789C1020.36 524.398 1020.06 524.056 1019.68 524.026C1019.29 523.995 1018.95 524.287 1018.92 524.678C1018.89 525.07 1019.18 525.411 1019.56 525.442Z" fill="#B9C4E1"/>
<path d="M1015.86 530.497C1016.38 530.538 1016.83 530.148 1016.87 529.626C1016.92 529.105 1016.53 528.649 1016.01 528.608C1015.49 528.568 1015.04 528.957 1015 529.479C1014.96 530 1015.34 530.456 1015.86 530.497Z" fill="#B9C4E1"/>
<path d="M1002.56 502.957C1003.21 503.008 1003.78 502.521 1003.83 501.869C1003.88 501.217 1003.4 500.648 1002.75 500.597C1002.1 500.546 1001.53 501.033 1001.48 501.685C1001.43 502.337 1001.91 502.907 1002.56 502.957Z" fill="#B9C4E1"/>
<path d="M1245.18 529.632C1245.83 529.683 1246.39 529.196 1246.44 528.544C1246.5 527.892 1246.01 527.322 1245.36 527.271C1244.72 527.22 1244.15 527.707 1244.1 528.359C1244.05 529.011 1244.53 529.581 1245.18 529.632Z" fill="#B9C4E1"/>
<path d="M1195.67 522.77C1196.06 522.801 1196.4 522.508 1196.43 522.117C1196.46 521.726 1196.17 521.384 1195.78 521.354C1195.39 521.323 1195.05 521.616 1195.02 522.007C1194.99 522.398 1195.28 522.74 1195.67 522.77Z" fill="#B9C4E1"/>
<path d="M1131.34 644.244C1132.06 644.3 1132.68 643.763 1132.74 643.046C1132.79 642.329 1132.26 641.702 1131.55 641.646C1130.84 641.59 1130.21 642.126 1130.16 642.843C1130.1 643.561 1130.63 644.188 1131.34 644.244Z" fill="#B9C4E1"/>
<path d="M1169.5 597.343C1169.95 597.379 1170.35 597.038 1170.39 596.582C1170.42 596.125 1170.08 595.727 1169.63 595.691C1169.18 595.655 1168.78 595.996 1168.74 596.453C1168.71 596.909 1169.05 597.308 1169.5 597.343Z" fill="#B9C4E1"/>
<path d="M1424.31 610.126C1425.34 610.207 1426.25 609.427 1426.33 608.384C1426.41 607.341 1425.64 606.429 1424.6 606.347C1423.57 606.266 1422.66 607.045 1422.58 608.089C1422.5 609.132 1423.27 610.044 1424.31 610.126Z" fill="#B9C4E1"/>
<path d="M1061.56 566.404C1062.01 566.44 1062.41 566.099 1062.44 565.643C1062.48 565.186 1062.14 564.788 1061.69 564.752C1061.23 564.716 1060.84 565.057 1060.8 565.514C1060.77 565.97 1061.1 566.369 1061.56 566.404Z" fill="#B9C4E1"/>
<path d="M1043.54 577.819C1043.87 577.845 1044.15 577.601 1044.18 577.275C1044.2 576.949 1043.96 576.665 1043.64 576.639C1043.31 576.614 1043.03 576.857 1043 577.183C1042.98 577.509 1043.22 577.794 1043.54 577.819Z" fill="#B9C4E1"/>
<path d="M1036.14 559.416C1036.52 559.447 1036.86 559.155 1036.9 558.763C1036.93 558.372 1036.64 558.03 1036.25 558C1035.86 557.969 1035.52 558.262 1035.49 558.653C1035.46 559.044 1035.75 559.386 1036.14 559.416Z" fill="#B9C4E1"/>
<path d="M1021.6 637.755C1021.99 637.785 1022.33 637.493 1022.36 637.102C1022.39 636.711 1022.1 636.369 1021.71 636.338C1021.32 636.308 1020.98 636.6 1020.95 636.991C1020.92 637.383 1021.21 637.724 1021.6 637.755Z" fill="#B9C4E1"/>
<path d="M981.102 496.637C981.75 496.688 982.317 496.201 982.368 495.549C982.419 494.897 981.936 494.328 981.288 494.277C980.64 494.226 980.074 494.713 980.022 495.365C979.971 496.017 980.455 496.586 981.102 496.637Z" fill="#B9C4E1"/>
<path d="M1011.57 455.907C1012.35 455.968 1013.03 455.383 1013.09 454.6C1013.15 453.818 1012.57 453.134 1011.8 453.073C1011.02 453.012 1010.34 453.597 1010.28 454.379C1010.22 455.162 1010.8 455.846 1011.57 455.907Z" fill="#B9C4E1"/>
<path d="M921.871 488.775C923.102 488.871 924.179 487.945 924.276 486.706C924.373 485.467 923.454 484.384 922.223 484.288C920.992 484.191 919.915 485.117 919.818 486.356C919.72 487.595 920.639 488.678 921.871 488.775Z" fill="#B9C4E1"/>
<path d="M956.228 449.655C956.552 449.68 956.835 449.437 956.861 449.111C956.887 448.785 956.645 448.5 956.321 448.475C955.997 448.449 955.714 448.693 955.688 449.019C955.662 449.345 955.904 449.629 956.228 449.655Z" fill="#B9C4E1"/>
<path d="M1338.96 551.498C1339.61 551.549 1340.18 551.062 1340.23 550.41C1340.28 549.758 1339.79 549.188 1339.15 549.137C1338.5 549.086 1337.93 549.574 1337.88 550.226C1337.83 550.877 1338.31 551.447 1338.96 551.498Z" fill="#B9C4E1"/>
<path d="M939.566 232.118C940.344 232.179 941.024 231.594 941.085 230.812C941.147 230.029 940.566 229.345 939.789 229.284C939.011 229.223 938.331 229.808 938.269 230.59C938.208 231.373 938.788 232.057 939.566 232.118Z" fill="#B9C4E1"/>
<path d="M870.267 254.709C871.044 254.77 871.725 254.185 871.786 253.403C871.848 252.62 871.267 251.936 870.49 251.875C869.712 251.814 869.032 252.399 868.97 253.181C868.909 253.964 869.489 254.648 870.267 254.709Z" fill="#B9C4E1"/>
<path d="M854.712 288.89C855.166 288.926 855.562 288.585 855.598 288.128C855.634 287.672 855.296 287.273 854.842 287.238C854.389 287.202 853.992 287.543 853.956 287.999C853.921 288.456 854.259 288.854 854.712 288.89Z" fill="#B9C4E1"/>
<path d="M849.823 300.031C850.536 300.087 851.16 299.551 851.216 298.833C851.272 298.116 850.74 297.489 850.028 297.433C849.315 297.377 848.691 297.913 848.635 298.63C848.579 299.348 849.111 299.975 849.823 300.031Z" fill="#B9C4E1"/>
<path d="M912.657 353.679C913.24 353.725 913.75 353.287 913.796 352.7C913.842 352.113 913.407 351.601 912.824 351.555C912.241 351.509 911.731 351.948 911.685 352.534C911.639 353.121 912.074 353.634 912.657 353.679Z" fill="#B9C4E1"/>
<path d="M902.591 363.106C903.563 363.183 904.413 362.452 904.49 361.474C904.567 360.495 903.841 359.64 902.869 359.564C901.897 359.488 901.047 360.219 900.97 361.197C900.893 362.175 901.619 363.03 902.591 363.106Z" fill="#B9C4E1"/>
<path d="M891.354 408.439C892.391 408.52 893.298 407.74 893.38 406.697C893.462 405.654 892.688 404.742 891.651 404.66C890.615 404.579 889.708 405.359 889.626 406.402C889.544 407.445 890.318 408.357 891.354 408.439Z" fill="#B9C4E1"/>
<path d="M850.717 350.237C851.494 350.298 852.175 349.713 852.236 348.931C852.298 348.148 851.717 347.464 850.94 347.403C850.162 347.342 849.482 347.927 849.42 348.71C849.359 349.492 849.939 350.176 850.717 350.237Z" fill="#B9C4E1"/>
<path d="M859.176 332.724C859.565 332.755 859.905 332.462 859.935 332.071C859.966 331.68 859.676 331.338 859.287 331.308C858.899 331.277 858.559 331.57 858.528 331.961C858.497 332.352 858.787 332.694 859.176 332.724Z" fill="#B9C4E1"/>
<path d="M866.713 311.932C867.944 312.029 869.021 311.103 869.119 309.864C869.216 308.625 868.297 307.542 867.066 307.445C865.835 307.348 864.758 308.274 864.66 309.513C864.563 310.752 865.482 311.835 866.713 311.932Z" fill="#B9C4E1"/>
<path d="M876.921 287.191C877.828 287.262 878.622 286.58 878.694 285.667C878.765 284.754 878.088 283.956 877.181 283.885C876.274 283.814 875.48 284.496 875.409 285.409C875.337 286.322 876.014 287.12 876.921 287.191Z" fill="#B9C4E1"/>
<path d="M852.811 287.553C853.783 287.63 854.633 286.899 854.71 285.92C854.787 284.942 854.061 284.087 853.089 284.011C852.117 283.934 851.267 284.666 851.19 285.644C851.113 286.622 851.839 287.477 852.811 287.553Z" fill="#B9C4E1"/>
<path d="M867.282 244.613C867.865 244.658 868.375 244.22 868.421 243.633C868.468 243.047 868.032 242.534 867.449 242.488C866.866 242.442 866.357 242.881 866.31 243.467C866.264 244.054 866.699 244.567 867.282 244.613Z" fill="#B9C4E1"/>
<path d="M461.72 490.266C462.887 490.358 463.907 489.481 463.999 488.307C464.091 487.133 463.221 486.107 462.054 486.016C460.888 485.924 459.868 486.801 459.776 487.975C459.683 489.149 460.554 490.175 461.72 490.266Z" fill="#B9C4E1"/>
<path d="M1412.29 313.947C1413.39 314.034 1414.36 313.205 1414.44 312.097C1414.53 310.988 1413.71 310.019 1412.61 309.933C1411.5 309.846 1410.54 310.675 1410.45 311.783C1410.37 312.892 1411.19 313.861 1412.29 313.947Z" fill="#B9C4E1"/>
<path d="M1383.3 299.788C1383.69 299.818 1384.03 299.526 1384.06 299.135C1384.09 298.744 1383.8 298.402 1383.41 298.371C1383.02 298.341 1382.68 298.633 1382.65 299.024C1382.62 299.415 1382.91 299.757 1383.3 299.788Z" fill="#B9C4E1"/>
<path d="M1395.28 259.979C1396.13 260.046 1396.86 259.412 1396.93 258.564C1397 257.716 1396.37 256.976 1395.53 256.909C1394.68 256.843 1393.95 257.477 1393.88 258.324C1393.81 259.172 1394.44 259.913 1395.28 259.979Z" fill="#B9C4E1"/>
<path d="M1409.23 273.312C1409.49 273.332 1409.71 273.138 1409.73 272.877C1409.75 272.616 1409.56 272.388 1409.3 272.368C1409.04 272.347 1408.82 272.542 1408.8 272.803C1408.78 273.064 1408.97 273.292 1409.23 273.312Z" fill="#B9C4E1"/>
<path d="M1425.98 342.586C1426.69 342.642 1427.31 342.106 1427.37 341.389C1427.43 340.671 1426.89 340.045 1426.18 339.989C1425.47 339.933 1424.84 340.469 1424.79 341.186C1424.73 341.903 1425.26 342.53 1425.98 342.586Z" fill="#B9C4E1"/>
<path d="M1399.61 364.156C1400.77 364.248 1401.8 363.37 1401.89 362.197C1401.98 361.023 1401.11 359.997 1399.94 359.905C1398.78 359.814 1397.76 360.691 1397.66 361.865C1397.57 363.038 1398.44 364.064 1399.61 364.156Z" fill="#B9C4E1"/>
<path d="M1379.85 295.596C1380.24 295.626 1380.58 295.334 1380.61 294.943C1380.64 294.552 1380.35 294.21 1379.96 294.179C1379.58 294.149 1379.24 294.441 1379.21 294.832C1379.17 295.223 1379.46 295.565 1379.85 295.596Z" fill="#B9C4E1"/>
<path d="M1417.02 349.842C1417.54 349.883 1418 349.493 1418.04 348.971C1418.08 348.45 1417.69 347.994 1417.17 347.953C1416.65 347.913 1416.2 348.302 1416.16 348.824C1416.12 349.345 1416.51 349.801 1417.02 349.842Z" fill="#B9C4E1"/>
<path d="M1409.09 303.597C1409.41 303.622 1409.7 303.379 1409.72 303.053C1409.75 302.727 1409.51 302.442 1409.18 302.417C1408.86 302.391 1408.58 302.635 1408.55 302.961C1408.52 303.287 1408.77 303.571 1409.09 303.597Z" fill="#B9C4E1"/>
<path d="M1411.48 256.737C1412.19 256.793 1412.81 256.257 1412.87 255.54C1412.92 254.823 1412.39 254.196 1411.68 254.14C1410.97 254.084 1410.34 254.62 1410.29 255.337C1410.23 256.054 1410.76 256.681 1411.48 256.737Z" fill="#B9C4E1"/>
<path d="M1426.58 216.224C1427.43 216.29 1428.16 215.657 1428.23 214.809C1428.3 213.961 1427.67 213.22 1426.82 213.154C1425.98 213.088 1425.24 213.721 1425.18 214.569C1425.11 215.417 1425.74 216.158 1426.58 216.224Z" fill="#B9C4E1"/>
<path d="M1354.79 60.2906C1355.96 60.3822 1356.98 59.505 1357.07 58.3312C1357.16 57.1574 1356.29 56.1315 1355.12 56.0398C1353.96 55.9481 1352.94 56.8254 1352.85 57.9992C1352.75 59.173 1353.62 60.1989 1354.79 60.2906Z" fill="#B9C4E1"/>
<path d="M1369.44 75.1052C1370.55 75.1917 1371.51 74.3632 1371.6 73.2546C1371.68 72.146 1370.86 71.1771 1369.76 71.0905C1368.66 71.004 1367.69 71.8325 1367.61 72.9411C1367.52 74.0497 1368.34 75.0186 1369.44 75.1052Z" fill="#B9C4E1"/>
<path d="M1082.34 66.1997C1082.86 66.2404 1083.31 65.8507 1083.35 65.3292C1083.4 64.8077 1083.01 64.3519 1082.49 64.3112C1081.97 64.2705 1081.52 64.6602 1081.48 65.1817C1081.44 65.7032 1081.82 66.159 1082.34 66.1997Z" fill="#B9C4E1"/>
<path d="M1390.92 232.905C1391.89 232.981 1392.74 232.25 1392.82 231.272C1392.9 230.294 1392.17 229.439 1391.2 229.363C1390.23 229.286 1389.38 230.017 1389.3 230.995C1389.22 231.974 1389.95 232.828 1390.92 232.905Z" fill="#B9C4E1"/>
<path d="M1367.63 207.788C1368.54 207.86 1369.33 207.177 1369.4 206.264C1369.48 205.351 1368.8 204.553 1367.89 204.482C1366.98 204.411 1366.19 205.093 1366.12 206.006C1366.05 206.919 1366.72 207.717 1367.63 207.788Z" fill="#B9C4E1"/>
<path d="M772.046 281.798C772.564 281.839 773.017 281.449 773.058 280.928C773.099 280.406 772.713 279.95 772.194 279.909C771.676 279.869 771.223 280.259 771.182 280.78C771.141 281.301 771.528 281.757 772.046 281.798Z" fill="#B9C4E1"/>
<path d="M875.195 58.353C876.037 58.4192 876.774 57.7857 876.841 56.9379C876.907 56.0901 876.279 55.3492 875.436 55.283C874.594 55.2168 873.857 55.8504 873.79 56.6981C873.724 57.5459 874.353 58.2868 875.195 58.353Z" fill="#B9C4E1"/>
<path d="M1183.11 598.413C1183.56 598.449 1183.96 598.108 1184 597.652C1184.03 597.195 1183.69 596.796 1183.24 596.761C1182.79 596.725 1182.39 597.066 1182.35 597.522C1182.32 597.979 1182.66 598.378 1183.11 598.413Z" fill="#B9C4E1"/>
<path d="M1139.46 631.1C1140.17 631.156 1140.8 630.62 1140.85 629.903C1140.91 629.185 1140.38 628.558 1139.66 628.502C1138.95 628.446 1138.33 628.982 1138.27 629.7C1138.22 630.417 1138.75 631.044 1139.46 631.1Z" fill="#B9C4E1"/>
<path d="M1129.43 632.568C1130.08 632.619 1130.64 632.131 1130.69 631.48C1130.75 630.828 1130.26 630.258 1129.61 630.207C1128.97 630.156 1128.4 630.643 1128.35 631.295C1128.3 631.947 1128.78 632.517 1129.43 632.568Z" fill="#B9C4E1"/>
<path d="M809.963 458.711C810.611 458.762 811.177 458.274 811.228 457.623C811.28 456.971 810.796 456.401 810.148 456.35C809.501 456.299 808.934 456.786 808.883 457.438C808.832 458.09 809.315 458.66 809.963 458.711Z" fill="#B9C4E1"/>
<path d="M1361.83 171.928C1363.13 172.03 1364.26 171.055 1364.36 169.751C1364.47 168.447 1363.5 167.307 1362.2 167.205C1360.91 167.103 1359.77 168.078 1359.67 169.382C1359.57 170.686 1360.54 171.826 1361.83 171.928Z" fill="#B9C4E1"/>
<path d="M778.973 463.998C779.232 464.018 779.459 463.823 779.479 463.563C779.5 463.302 779.306 463.074 779.047 463.054C778.788 463.033 778.562 463.228 778.541 463.489C778.521 463.75 778.714 463.977 778.973 463.998Z" fill="#B9C4E1"/>
<path d="M819.571 264.386C820.154 264.432 820.664 263.993 820.71 263.407C820.756 262.82 820.321 262.307 819.738 262.261C819.155 262.216 818.645 262.654 818.599 263.241C818.553 263.828 818.988 264.34 819.571 264.386Z" fill="#B9C4E1"/>
<path d="M807.916 282.004C808.499 282.05 809.009 281.611 809.055 281.024C809.101 280.438 808.666 279.925 808.083 279.879C807.5 279.833 806.99 280.272 806.944 280.858C806.898 281.445 807.333 281.958 807.916 282.004Z" fill="#B9C4E1"/>
<path d="M836.441 306.582C837.154 306.638 837.778 306.102 837.834 305.385C837.89 304.668 837.358 304.041 836.645 303.985C835.933 303.929 835.309 304.465 835.253 305.182C835.196 305.899 835.728 306.526 836.441 306.582Z" fill="#B9C4E1"/>
<path d="M819.007 283.589C819.201 283.604 819.371 283.458 819.386 283.262C819.402 283.067 819.257 282.896 819.062 282.881C818.868 282.865 818.698 283.012 818.683 283.207C818.667 283.403 818.812 283.574 819.007 283.589Z" fill="#B9C4E1"/>
<path d="M686.245 293.048C686.542 292.182 686.085 291.239 685.225 290.941C684.365 290.643 683.427 291.104 683.13 291.97C682.833 292.836 683.29 293.779 684.15 294.077C685.011 294.375 685.949 293.914 686.245 293.048Z" fill="#B9C4E1"/>
<path d="M672.597 151.905C672.83 151.225 672.471 150.483 671.795 150.249C671.119 150.016 670.382 150.378 670.149 151.058C669.916 151.738 670.275 152.48 670.951 152.714C671.627 152.947 672.364 152.585 672.597 151.905Z" fill="#B9C4E1"/>
<path d="M706.326 289.262C706.475 288.829 706.246 288.358 705.816 288.209C705.386 288.06 704.918 288.291 704.769 288.723C704.621 289.156 704.849 289.628 705.279 289.776C705.709 289.925 706.178 289.695 706.326 289.262Z" fill="#B9C4E1"/>
<path d="M711.049 278.764C711.155 278.455 710.992 278.118 710.685 278.012C710.378 277.905 710.043 278.07 709.937 278.379C709.831 278.688 709.994 279.025 710.301 279.131C710.608 279.237 710.943 279.073 711.049 278.764Z" fill="#B9C4E1"/>
<path d="M1041.76 639.578C1042.47 639.634 1043.09 639.098 1043.15 638.38C1043.21 637.663 1042.68 637.036 1041.96 636.98C1041.25 636.924 1040.63 637.46 1040.57 638.177C1040.51 638.895 1041.05 639.522 1041.76 639.578Z" fill="#B9C4E1"/>
<path d="M1032.58 643.726C1033.23 643.777 1033.79 643.29 1033.84 642.638C1033.9 641.986 1033.41 641.417 1032.76 641.366C1032.12 641.315 1031.55 641.802 1031.5 642.454C1031.45 643.106 1031.93 643.675 1032.58 643.726Z" fill="#B9C4E1"/>
<path d="M1020.8 661.453C1021.44 661.504 1022.01 661.017 1022.06 660.365C1022.11 659.713 1021.63 659.143 1020.98 659.092C1020.33 659.041 1019.77 659.529 1019.72 660.18C1019.67 660.832 1020.15 661.402 1020.8 661.453Z" fill="#B9C4E1"/>
<path d="M996.977 623.583C997.754 623.644 998.435 623.059 998.496 622.277C998.558 621.494 997.977 620.81 997.2 620.749C996.422 620.688 995.742 621.273 995.68 622.056C995.619 622.838 996.199 623.522 996.977 623.583Z" fill="#B9C4E1"/>
<path d="M1054.23 525.91C1055.01 525.971 1055.69 525.387 1055.75 524.604C1055.82 523.822 1055.23 523.138 1054.46 523.076C1053.68 523.015 1053 523.6 1052.94 524.383C1052.88 525.165 1053.46 525.849 1054.23 525.91Z" fill="#B9C4E1"/>
<path d="M1063.02 657.406C1063.54 657.447 1063.99 657.057 1064.03 656.536C1064.08 656.014 1063.69 655.558 1063.17 655.518C1062.65 655.477 1062.2 655.867 1062.16 656.388C1062.12 656.91 1062.5 657.365 1063.02 657.406Z" fill="#B9C4E1"/>
<path d="M1050.52 505.54C1050.78 505.56 1051.01 505.365 1051.03 505.105C1051.05 504.844 1050.86 504.616 1050.6 504.596C1050.34 504.575 1050.11 504.77 1050.09 505.031C1050.07 505.292 1050.26 505.52 1050.52 505.54Z" fill="#B9C4E1"/>
<path d="M1026.17 632.174C1027.01 632.241 1027.75 631.607 1027.81 630.759C1027.88 629.912 1027.25 629.171 1026.41 629.104C1025.57 629.038 1024.83 629.672 1024.76 630.519C1024.7 631.367 1025.33 632.108 1026.17 632.174Z" fill="#B9C4E1"/>
<path d="M913.276 368.342C914.118 368.408 914.855 367.775 914.922 366.927C914.988 366.079 914.36 365.338 913.517 365.272C912.675 365.206 911.938 365.839 911.871 366.687C911.805 367.535 912.434 368.276 913.276 368.342Z" fill="#B9C4E1"/>
<path d="M999.814 145.967L959.954 187.505L979.749 216.505L999.814 145.967Z" stroke="#B9C4E1" stroke-width="0.5" stroke-miterlimit="10" stroke-linecap="round" stroke-linejoin="round"/>
<path d="M953.002 451.659L942.16 476.944L922.047 486.531L953.002 451.659Z" stroke="#B9C4E1" stroke-width="0.5" stroke-miterlimit="10" stroke-linecap="round" stroke-linejoin="round"/>
<path d="M1002.66 501.778L978.751 511.542L970.077 477.713L1002.66 501.778Z" stroke="#B9C4E1" stroke-width="0.5" stroke-miterlimit="10" stroke-linecap="round" stroke-linejoin="round"/>
<path d="M1225.86 556.153L1287.1 539.938L1245.27 528.452L1225.86 556.153Z" stroke="#B9C4E1" stroke-width="0.5" stroke-miterlimit="10" stroke-linecap="round" stroke-linejoin="round"/>
<path d="M1261.63 101.084L1258.4 119.602L1318.77 114.487L1261.63 101.084Z" stroke="#B9C4E1" stroke-width="0.5" stroke-miterlimit="10" stroke-linecap="round" stroke-linejoin="round"/>
<path d="M1319.04 165.119L1367.76 206.135L1362.02 169.567L1319.04 165.119Z" stroke="#B9C4E1" stroke-width="0.5" stroke-miterlimit="10" stroke-linecap="round" stroke-linejoin="round"/>
<path d="M1371.66 249.687L1383.64 293.993L1391.06 231.134L1371.66 249.687Z" stroke="#B9C4E1" stroke-width="0.5" stroke-miterlimit="10" stroke-linecap="round" stroke-linejoin="round"/>
<path d="M1339.05 550.318L1332.92 479.622L1310.95 503.913L1339.05 550.318Z" stroke="#B9C4E1" stroke-width="0.5" stroke-miterlimit="10" stroke-linecap="round" stroke-linejoin="round"/>
<path d="M902.73 361.335L912.262 336.185L913.397 366.807L902.73 361.335Z" stroke="#B9C4E1" stroke-width="0.5" stroke-miterlimit="10" stroke-linecap="round" stroke-linejoin="round"/>
<path d="M873.662 321.151L859.232 332.016L866.889 309.689L873.662 321.151Z" stroke="#B9C4E1" stroke-width="0.5" stroke-miterlimit="10" stroke-linecap="round" stroke-linejoin="round"/>
<path d="M852.95 285.782L877.051 285.538L849.925 298.732L852.95 285.782Z" stroke="#B9C4E1" stroke-width="0.5" stroke-miterlimit="10" stroke-linecap="round" stroke-linejoin="round"/>
<path d="M866.889 309.689L852.95 285.782L849.925 298.732L866.889 309.689Z" stroke="#B9C4E1" stroke-width="0.5" stroke-miterlimit="10" stroke-linecap="round" stroke-linejoin="round"/>
<path d="M931.967 235.679L939.677 230.701L948.944 181.887L931.967 235.679Z" stroke="#B9C4E1" stroke-width="0.5" stroke-miterlimit="10" stroke-linecap="round" stroke-linejoin="round"/>
<path d="M796.478 278.848L799.26 261.483L808 280.942L796.478 278.848Z" stroke="#B9C4E1" stroke-width="0.5" stroke-miterlimit="10" stroke-linecap="round" stroke-linejoin="round"/>
<path d="M819.655 263.324L799.26 261.483L796.478 278.848L819.655 263.324Z" stroke="#B9C4E1" stroke-width="0.5" stroke-miterlimit="10" stroke-linecap="round" stroke-linejoin="round"/>
<path d="M700.645 299.591L684.675 292.514L705.497 288.924L700.645 299.591Z" stroke="#B9C4E1" stroke-width="0.5" stroke-miterlimit="10" stroke-linecap="round" stroke-linejoin="round"/>
<path d="M689.662 286.134L684.675 292.514L700.645 299.591L689.662 286.134Z" stroke="#B9C4E1" stroke-width="0.5" stroke-miterlimit="10" stroke-linecap="round" stroke-linejoin="round"/>
<path d="M788.424 192.08L776.907 237.985L814.025 232.824L788.424 192.08Z" stroke="#B9C4E1" stroke-width="0.5" stroke-miterlimit="10" stroke-linecap="round" stroke-linejoin="round"/>
<path d="M870.378 253.292L867.366 243.551L849.427 249.507L870.378 253.292Z" stroke="#B9C4E1" stroke-width="0.5" stroke-miterlimit="10" stroke-linecap="round" stroke-linejoin="round"/>
<path d="M1384.39 315.913L1385.12 335.217L1412.45 311.94L1384.39 315.913Z" stroke="#B9C4E1" stroke-width="0.5" stroke-miterlimit="10" stroke-linecap="round" stroke-linejoin="round"/>
<path d="M1411.58 255.439L1395.4 258.444L1404.24 284.207L1411.58 255.439Z" stroke="#B9C4E1" stroke-width="0.5" stroke-miterlimit="10" stroke-linecap="round" stroke-linejoin="round"/>
<path d="M1391.06 231.134L1371.66 249.687L1395.4 258.444L1391.06 231.134Z" stroke="#B9C4E1" stroke-width="0.5" stroke-miterlimit="10" stroke-linecap="round" stroke-linejoin="round"/>
<path d="M1453.96 259.958L1447.75 274.321L1437.27 264.943L1453.96 259.958Z" stroke="#B9C4E1" stroke-width="0.5" stroke-miterlimit="10" stroke-linecap="round" stroke-linejoin="round"/>
<path d="M1426.08 341.287L1384.39 315.913L1412.45 311.94L1426.08 341.287Z" stroke="#B9C4E1" stroke-width="0.5" stroke-miterlimit="10" stroke-linecap="round" stroke-linejoin="round"/>
<path d="M1426.7 214.689L1444.22 244.104L1451.39 223.52L1426.7 214.689Z" stroke="#B9C4E1" stroke-width="0.5" stroke-miterlimit="10" stroke-linecap="round" stroke-linejoin="round"/>
<path d="M1065.93 554.274L1036.19 558.708L1061.62 565.578L1065.93 554.274Z" stroke="#B9C4E1" stroke-width="0.5" stroke-miterlimit="10" stroke-linecap="round" stroke-linejoin="round"/>
<path d="M1060.5 480.781L1051.18 485.157L1044.8 473.25L1060.5 480.781Z" stroke="#B9C4E1" stroke-width="0.5" stroke-miterlimit="10" stroke-linecap="round" stroke-linejoin="round"/>
<path d="M1040.89 119.019L1047.14 132.579L1020.18 130.103L1040.89 119.019Z" stroke="#B9C4E1" stroke-width="0.5" stroke-miterlimit="10" stroke-linecap="round" stroke-linejoin="round"/>
<path d="M1155.72 90.8584L1213.22 101.2L1204.12 104.405L1155.72 90.8584Z" stroke="#B9C4E1" stroke-width="0.5" stroke-miterlimit="10" stroke-linecap="round" stroke-linejoin="round"/>
<path d="M1175.96 584.19L1169.57 596.518L1183.18 597.587L1175.96 584.19Z" stroke="#B9C4E1" stroke-width="0.5" stroke-miterlimit="10" stroke-linecap="round" stroke-linejoin="round"/>
<path d="M1015.94 529.553L1010.24 523.996L1019.62 524.734L1015.94 529.553Z" stroke="#B9C4E1" stroke-width="0.5" stroke-miterlimit="10" stroke-linecap="round" stroke-linejoin="round"/>
<path d="M970.077 477.713L953.002 451.659L922.047 486.531L970.077 477.713Z" stroke="#B9C4E1" stroke-width="0.5" stroke-miterlimit="10" stroke-linecap="round" stroke-linejoin="round"/>
<path d="M955.837 79.1862L959.954 187.505L999.814 145.967L955.837 79.1862Z" stroke="#B9C4E1" stroke-width="0.5" stroke-miterlimit="10" stroke-linecap="round" stroke-linejoin="round"/>
<path d="M1370.84 413.219L1385.12 335.217L1399.78 362.031L1370.84 413.219Z" stroke="#B9C4E1" stroke-width="0.5" stroke-miterlimit="10" stroke-linecap="round" stroke-linejoin="round"/>
<path d="M922.047 486.531L920.991 406.848L953.002 451.659L922.047 486.531Z" stroke="#B9C4E1" stroke-width="0.5" stroke-miterlimit="10" stroke-linecap="round" stroke-linejoin="round"/>
<path d="M921.515 260.519L939.677 230.701L931.967 235.679L921.515 260.519Z" stroke="#B9C4E1" stroke-width="0.5" stroke-miterlimit="10" stroke-linecap="round" stroke-linejoin="round"/>
<path d="M948.944 181.887L959.954 187.505L999.813 145.967L948.944 181.887Z" stroke="#B9C4E1" stroke-width="0.5" stroke-miterlimit="10" stroke-linecap="round" stroke-linejoin="round"/>
<path d="M1371.66 249.687L1319.04 165.119L1367.76 206.135L1371.66 249.687Z" stroke="#B9C4E1" stroke-width="0.5" stroke-miterlimit="10" stroke-linecap="round" stroke-linejoin="round"/>
<path d="M978.751 511.542L942.16 476.944L970.077 477.713L978.751 511.542Z" stroke="#B9C4E1" stroke-width="0.5" stroke-miterlimit="10" stroke-linecap="round" stroke-linejoin="round"/>
<path d="M1225.86 556.153L1310.95 503.913L1287.1 539.938L1225.86 556.153Z" stroke="#B9C4E1" stroke-width="0.5" stroke-miterlimit="10" stroke-linecap="round" stroke-linejoin="round"/>
<path d="M1155.72 90.8584L1126.22 66.6792L1057.27 110.327L1155.72 90.8584Z" stroke="#B9C4E1" stroke-width="0.5" stroke-miterlimit="10" stroke-linecap="round" stroke-linejoin="round"/>
<path d="M1318.77 114.487L1367.76 206.135L1319.04 165.119L1318.77 114.487Z" stroke="#B9C4E1" stroke-width="0.5" stroke-miterlimit="10" stroke-linecap="round" stroke-linejoin="round"/>
<path d="M870.378 253.292L877.051 285.538L921.515 260.519L870.378 253.292Z" stroke="#B9C4E1" stroke-width="0.5" stroke-miterlimit="10" stroke-linecap="round" stroke-linejoin="round"/>
<path d="M916.395 286.611L870.378 253.292L921.515 260.519L916.395 286.611Z" stroke="#B9C4E1" stroke-width="0.5" stroke-miterlimit="10" stroke-linecap="round" stroke-linejoin="round"/>
<path d="M873.662 321.151L877.051 285.538L912.262 336.185L873.662 321.151Z" stroke="#B9C4E1" stroke-width="0.5" stroke-miterlimit="10" stroke-linecap="round" stroke-linejoin="round"/>
<path d="M891.503 406.55L953.001 451.659L920.991 406.848L891.503 406.55Z" stroke="#B9C4E1" stroke-width="0.5" stroke-miterlimit="10" stroke-linecap="round" stroke-linejoin="round"/>
<path d="M850.828 348.82L902.73 361.335L891.503 406.55L850.828 348.82Z" stroke="#B9C4E1" stroke-width="0.5" stroke-miterlimit="10" stroke-linecap="round" stroke-linejoin="round"/>
<path d="M1258.4 119.602L1319.04 165.119L1362.02 169.567L1258.4 119.602Z" stroke="#B9C4E1" stroke-width="0.5" stroke-miterlimit="10" stroke-linecap="round" stroke-linejoin="round"/>
<path d="M1020.18 130.103L1023.68 97.588L1057.27 110.327L1020.18 130.103Z" stroke="#B9C4E1" stroke-width="0.5" stroke-miterlimit="10" stroke-linecap="round" stroke-linejoin="round"/>
<path d="M1332.92 479.622L1370.84 413.219L1409.35 440.007L1332.92 479.622Z" stroke="#B9C4E1" stroke-width="0.5" stroke-miterlimit="10" stroke-linecap="round" stroke-linejoin="round"/>
<path d="M1411.32 485.546L1370.84 413.219L1409.35 440.007L1411.32 485.546Z" stroke="#B9C4E1" stroke-width="0.5" stroke-miterlimit="10" stroke-linecap="round" stroke-linejoin="round"/>
<path d="M1339.05 550.318L1458.36 588.447L1424.45 608.237L1339.05 550.318Z" stroke="#B9C4E1" stroke-width="0.5" stroke-miterlimit="10" stroke-linecap="round" stroke-linejoin="round"/>
<path d="M857.311 105.658L999.814 145.967L955.837 79.1862L857.311 105.658Z" stroke="#B9C4E1" stroke-width="0.5" stroke-miterlimit="10" stroke-linecap="round" stroke-linejoin="round"/>
<path d="M788.424 192.08L718.334 121.109L810.022 130.573L788.424 192.08Z" stroke="#B9C4E1" stroke-width="0.5" stroke-miterlimit="10" stroke-linecap="round" stroke-linejoin="round"/>
<path d="M867.937 171.718L857.311 105.658L955.837 79.1862L867.937 171.718Z" stroke="#B9C4E1" stroke-width="0.5" stroke-miterlimit="10" stroke-linecap="round" stroke-linejoin="round"/>
<path d="M791.105 12.2995L770.857 55.1415L733.872 -5.98077L791.105 12.2995Z" stroke="#B9C4E1" stroke-width="0.5" stroke-miterlimit="10" stroke-linecap="round" stroke-linejoin="round"/>
<path d="M867.366 243.551L867.937 171.718L810.022 130.573L867.366 243.551Z" stroke="#B9C4E1" stroke-width="0.5" stroke-miterlimit="10" stroke-linecap="round" stroke-linejoin="round"/>
<path d="M770.857 55.1415L718.334 121.109L788.424 192.08L770.857 55.1415Z" stroke="#B9C4E1" stroke-width="0.5" stroke-miterlimit="10" stroke-linecap="round" stroke-linejoin="round"/>
<path d="M931.967 235.679L867.366 243.551L867.937 171.718L931.967 235.679Z" stroke="#B9C4E1" stroke-width="0.5" stroke-miterlimit="10" stroke-linecap="round" stroke-linejoin="round"/>
<path d="M948.945 181.887L867.366 243.551L867.937 171.718L948.945 181.887Z" stroke="#B9C4E1" stroke-width="0.5" stroke-miterlimit="10" stroke-linecap="round" stroke-linejoin="round"/>
<path d="M1486.86 535.205L1458.36 588.447L1424.45 608.236L1486.86 535.205Z" stroke="#B9C4E1" stroke-width="0.5" stroke-miterlimit="10" stroke-linecap="round" stroke-linejoin="round"/>
<path d="M671.44 151.52L810.022 130.573L718.334 121.109L671.44 151.52Z" stroke="#B9C4E1" stroke-width="0.5" stroke-miterlimit="10" stroke-linecap="round" stroke-linejoin="round"/>
<path d="M713.231 80.9074L718.334 121.109L810.022 130.573L713.231 80.9074Z" stroke="#B9C4E1" stroke-width="0.5" stroke-miterlimit="10" stroke-linecap="round" stroke-linejoin="round"/>
<path d="M713.231 80.9075L577.898 -7.54602" stroke="#B9C4E1" stroke-width="0.5" stroke-miterlimit="10" stroke-linecap="round" stroke-linejoin="round"/>
<path d="M1411.32 485.546L1424.45 608.237L1486.86 535.205L1411.32 485.546Z" stroke="#B9C4E1" stroke-width="0.5" stroke-miterlimit="10" stroke-linecap="round" stroke-linejoin="round"/>
<path d="M1024.73 534.877L1036.19 558.708L1061.62 565.578L1024.73 534.877Z" stroke="#B9C4E1" stroke-width="0.5" stroke-miterlimit="10" stroke-linecap="round" stroke-linejoin="round"/>
<path d="M978.751 511.542L1010.24 523.996L1002.66 501.778L978.751 511.542Z" stroke="#B9C4E1" stroke-width="0.5" stroke-miterlimit="10" stroke-linecap="round" stroke-linejoin="round"/>
<path d="M1054.35 524.493L1024.73 534.878L1036.19 558.708L1054.35 524.493Z" stroke="#B9C4E1" stroke-width="0.5" stroke-miterlimit="10" stroke-linecap="round" stroke-linejoin="round"/>
<path d="M586.739 -1.03138L791.105 12.2995L733.872 -5.98085L586.739 -1.03138Z" stroke="#B9C4E1" stroke-width="0.5" stroke-miterlimit="10" stroke-linecap="round" stroke-linejoin="round"/>
<path d="M810.056 457.531L779.622 443.733L767.967 461.351L810.056 457.531Z" stroke="#B9C4E1" stroke-width="0.5" stroke-miterlimit="10" stroke-linecap="round" stroke-linejoin="round"/>
<path d="M1139.56 629.801L1129.52 631.388L1131.45 642.945L1139.56 629.801Z" stroke="#B9C4E1" stroke-width="0.5" stroke-miterlimit="10" stroke-linecap="round" stroke-linejoin="round"/>
<path d="M1026.29 630.639L1032.67 642.547L1041.86 638.279L1026.29 630.639Z" stroke="#B9C4E1" stroke-width="0.5" stroke-miterlimit="10" stroke-linecap="round" stroke-linejoin="round"/>
<path d="M997.088 622.166L1026.29 630.639L1028.28 605.253L997.088 622.166Z" stroke="#B9C4E1" stroke-width="0.5" stroke-miterlimit="10" stroke-linecap="round" stroke-linejoin="round"/>
<path d="M1354.96 58.1652L1331.59 70.1099L1369.6 73.0978L1354.96 58.1652Z" stroke="#B9C4E1" stroke-width="0.5" stroke-miterlimit="10" stroke-linecap="round" stroke-linejoin="round"/>
<path d="M1383.64 293.993L1412.45 311.94L1404.24 284.207L1383.64 293.993Z" stroke="#B9C4E1" stroke-width="0.5" stroke-miterlimit="10" stroke-linecap="round" stroke-linejoin="round"/>
<path d="M1411.58 255.439L1426.7 214.689L1451.39 223.52L1411.58 255.439Z" stroke="#B9C4E1" stroke-width="0.5" stroke-miterlimit="10" stroke-linecap="round" stroke-linejoin="round"/>
<path d="M1391.06 231.134L1367.76 206.135L1426.7 214.689L1391.06 231.134Z" stroke="#B9C4E1" stroke-width="0.5" stroke-miterlimit="10" stroke-linecap="round" stroke-linejoin="round"/>
<path d="M1473.5 317.689L1426.08 341.287L1412.45 311.94L1473.5 317.689Z" stroke="#B9C4E1" stroke-width="0.5" stroke-miterlimit="10" stroke-linecap="round" stroke-linejoin="round"/>
<path d="M788.424 192.08L867.937 171.718L810.022 130.573L788.424 192.08Z" stroke="#B9C4E1" stroke-width="0.5" stroke-miterlimit="10" stroke-linecap="round" stroke-linejoin="round"/>
<path d="M873.662 321.151L891.503 406.55L850.828 348.82L873.662 321.151Z" stroke="#B9C4E1" stroke-width="0.5" stroke-miterlimit="10" stroke-linecap="round" stroke-linejoin="round"/>
<path d="M859.232 332.016L850.828 348.82L902.73 361.335L859.232 332.016Z" stroke="#B9C4E1" stroke-width="0.5" stroke-miterlimit="10" stroke-linecap="round" stroke-linejoin="round"/>
<path d="M849.427 249.507L852.95 285.782L820.594 263.398L849.427 249.507Z" stroke="#B9C4E1" stroke-width="0.5" stroke-miterlimit="10" stroke-linecap="round" stroke-linejoin="round"/>
<path d="M1477.15 383.914L1465.44 405.21L1421.55 391.424L1477.15 383.914Z" stroke="#B9C4E1" stroke-width="0.5" stroke-miterlimit="10" stroke-linecap="round" stroke-linejoin="round"/>
<path d="M810.022 130.573L857.311 105.658L718.334 121.109L810.022 130.573Z" stroke="#B9C4E1" stroke-width="0.5" stroke-miterlimit="10" stroke-linecap="round" stroke-linejoin="round"/>
<path d="M1134.76 581.306C1134.95 581.322 1135.12 581.176 1135.14 580.98C1135.15 580.784 1135.01 580.614 1134.81 580.598C1134.62 580.583 1134.45 580.729 1134.43 580.925C1134.42 581.12 1134.56 581.291 1134.76 581.306Z" fill="#B9C4E1"/>
<path d="M1123.52 577.096C1123.91 577.127 1124.25 576.835 1124.28 576.443C1124.31 576.052 1124.02 575.71 1123.63 575.68C1123.24 575.649 1122.9 575.942 1122.87 576.333C1122.84 576.724 1123.13 577.066 1123.52 577.096Z" fill="#B9C4E1"/>
<path d="M1139.18 592.584C1139.51 592.61 1139.79 592.366 1139.81 592.04C1139.84 591.714 1139.6 591.43 1139.27 591.404C1138.95 591.379 1138.67 591.622 1138.64 591.948C1138.62 592.274 1138.86 592.559 1139.18 592.584Z" fill="#B9C4E1"/>
<path d="M1130.7 569.82C1131.15 569.855 1131.55 569.514 1131.59 569.058C1131.62 568.602 1131.28 568.203 1130.83 568.167C1130.38 568.131 1129.98 568.473 1129.95 568.929C1129.91 569.385 1130.25 569.784 1130.7 569.82Z" fill="#B9C4E1"/>
<path d="M1144.64 583.271C1144.83 583.286 1145 583.14 1145.02 582.945C1145.03 582.749 1144.89 582.578 1144.69 582.563C1144.5 582.548 1144.33 582.694 1144.31 582.889C1144.3 583.085 1144.44 583.256 1144.64 583.271Z" fill="#B9C4E1"/>
<path d="M1143.88 589.865C1144.08 589.88 1144.25 589.734 1144.26 589.539C1144.28 589.343 1144.13 589.172 1143.94 589.157C1143.74 589.142 1143.57 589.288 1143.56 589.483C1143.54 589.679 1143.69 589.85 1143.88 589.865Z" fill="#B9C4E1"/>
<path d="M1145.79 598.687C1146.17 598.718 1146.51 598.425 1146.54 598.034C1146.58 597.643 1146.29 597.301 1145.9 597.271C1145.51 597.24 1145.17 597.533 1145.14 597.924C1145.11 598.315 1145.4 598.657 1145.79 598.687Z" fill="#B9C4E1"/>
<path d="M1138.85 598.261C1139.31 598.297 1139.7 597.956 1139.74 597.499C1139.78 597.043 1139.44 596.644 1138.98 596.609C1138.53 596.573 1138.13 596.914 1138.1 597.37C1138.06 597.827 1138.4 598.225 1138.85 598.261Z" fill="#B9C4E1"/>
<path d="M1131.88 595.337C1132.34 595.373 1132.73 595.032 1132.77 594.575C1132.8 594.119 1132.47 593.72 1132.01 593.685C1131.56 593.649 1131.16 593.99 1131.13 594.446C1131.09 594.903 1131.43 595.301 1131.88 595.337Z" fill="#B9C4E1"/>
<path d="M1124.07 567.042C1124.33 567.062 1124.56 566.867 1124.58 566.606C1124.6 566.346 1124.41 566.118 1124.15 566.097C1123.89 566.077 1123.66 566.272 1123.64 566.533C1123.62 566.793 1123.81 567.021 1124.07 567.042Z" fill="#B9C4E1"/>
<path d="M1122.28 558.346C1122.47 558.362 1122.64 558.216 1122.66 558.02C1122.67 557.824 1122.53 557.654 1122.33 557.638C1122.14 557.623 1121.97 557.769 1121.95 557.965C1121.94 558.16 1122.08 558.331 1122.28 558.346Z" fill="#B9C4E1"/>
<path d="M1120.47 542.284C1120.67 542.3 1120.84 542.153 1120.85 541.958C1120.87 541.762 1120.72 541.591 1120.53 541.576C1120.33 541.561 1120.16 541.707 1120.15 541.903C1120.13 542.098 1120.28 542.269 1120.47 542.284Z" fill="#B9C4E1"/>
<path d="M1145.84 597.979L1138.92 597.435L1143.91 589.511L1145.84 597.979Z" stroke="#B9C4E1" stroke-width="0.5" stroke-miterlimit="10" stroke-linecap="round" stroke-linejoin="round"/>
<path d="M1139.23 591.994L1138.92 597.435L1145.84 597.979L1139.23 591.994Z" stroke="#B9C4E1" stroke-width="0.5" stroke-miterlimit="10" stroke-linecap="round" stroke-linejoin="round"/>
<path opacity="0.1" d="M1145.84 597.979L1138.92 597.435L1143.91 589.511L1145.84 597.979Z" fill="#B9C4E1"/>
<mask id="mask0" mask-type="alpha" maskUnits="userSpaceOnUse" x="-1" y="0" width="399" height="249">
<rect x="-1" width="399" height="249" fill="#C4C4C4"/>
</mask>
<g mask="url(#mask0)">
<path d="M13.8821 75.7867C15.0908 75.8817 16.1482 74.9725 16.2438 73.7561C16.3395 72.5396 15.4371 71.4764 14.2284 71.3814C13.0196 71.2864 11.9623 72.1955 11.8667 73.412C11.771 74.6285 12.6734 75.6917 13.8821 75.7867Z" fill="#B9C4E1"/>
<path d="M27.5255 56.2967C27.9282 56.3283 28.2805 56.0254 28.3124 55.6201C28.3442 55.2147 28.0436 54.8605 27.6408 54.8289C27.2381 54.7972 26.8858 55.1001 26.8539 55.5054C26.8221 55.9108 27.1227 56.265 27.5255 56.2967Z" fill="#B9C4E1"/>
<path d="M39.3548 36.5419C39.6233 36.563 39.8582 36.361 39.8794 36.0908C39.9006 35.8206 39.7002 35.5844 39.4317 35.5633C39.1632 35.5422 38.9283 35.7441 38.9071 36.0144C38.8859 36.2846 39.0863 36.5208 39.3548 36.5419Z" fill="#B9C4E1"/>
<path d="M53.275 5.74636C53.812 5.78857 54.2817 5.38465 54.3242 4.8442C54.3667 4.30376 53.9658 3.83144 53.4288 3.78923C52.8918 3.74702 52.4221 4.1509 52.3796 4.69135C52.3371 5.2318 52.738 5.70415 53.275 5.74636Z" fill="#B9C4E1"/>
<path d="M300.656 35.1655C301.529 35.2341 302.293 34.5775 302.362 33.6989C302.431 32.8204 301.779 32.0525 300.906 31.9839C300.033 31.9153 299.269 32.5719 299.2 33.4505C299.131 34.329 299.783 35.0969 300.656 35.1655Z" fill="#B9C4E1"/>
<path d="M353.45 18.7535C354.592 18.8432 355.591 17.9846 355.681 16.8357C355.771 15.6868 354.919 14.6827 353.777 14.593C352.636 14.5033 351.637 15.3619 351.547 16.5108C351.457 17.6596 352.309 18.6638 353.45 18.7535Z" fill="#B9C4E1"/>
<path d="M267.403 3.74051C268.612 3.83552 269.669 2.9264 269.765 1.70992C269.86 0.493442 268.958 -0.569752 267.749 -0.664762C266.541 -0.759772 265.483 0.149382 265.388 1.36586C265.292 2.58234 266.194 3.6455 267.403 3.74051Z" fill="#B9C4E1"/>
<path d="M143.919 187.955C144.792 188.024 145.556 187.367 145.625 186.489C145.694 185.61 145.042 184.842 144.169 184.774C143.297 184.705 142.533 185.362 142.464 186.24C142.395 187.119 143.046 187.887 143.919 187.955Z" fill="#B9C4E1"/>
<path d="M173.449 132.9C174.389 132.974 175.211 132.267 175.286 131.321C175.36 130.375 174.658 129.548 173.718 129.474C172.778 129.4 171.956 130.107 171.881 131.053C171.807 132 172.509 132.826 173.449 132.9Z" fill="#B9C4E1"/>
<path d="M129.888 114.332C130.627 114.39 131.273 113.834 131.331 113.091C131.39 112.348 130.838 111.698 130.099 111.64C129.361 111.582 128.715 112.137 128.656 112.881C128.598 113.624 129.149 114.274 129.888 114.332Z" fill="#B9C4E1"/>
<path d="M95.0736 82.538C96.6181 82.6594 97.9691 81.4978 98.0913 79.9434C98.2135 78.389 97.0605 77.0305 95.516 76.9091C93.9716 76.7877 92.6204 77.9493 92.4983 79.5037C92.3761 81.0581 93.5291 82.4166 95.0736 82.538Z" fill="#B9C4E1"/>
<path d="M208.952 135.691C209.691 135.749 210.337 135.194 210.396 134.45C210.454 133.707 209.903 133.057 209.164 132.999C208.425 132.941 207.779 133.496 207.721 134.24C207.662 134.983 208.214 135.633 208.952 135.691Z" fill="#B9C4E1"/>
<path d="M93.1391 33.9981C93.9449 34.0614 94.6498 33.4553 94.7136 32.6443C94.7773 31.8333 94.1758 31.1246 93.37 31.0612C92.5641 30.9979 91.8592 31.6039 91.7955 32.4149C91.7317 33.2259 92.3333 33.9347 93.1391 33.9981Z" fill="#B9C4E1"/>
<path d="M178.697 45.8938C179.167 45.9307 179.578 45.5773 179.615 45.1044C179.652 44.6316 179.302 44.2183 178.832 44.1813C178.362 44.1444 177.951 44.4978 177.914 44.9707C177.876 45.4436 178.227 45.8569 178.697 45.8938Z" fill="#B9C4E1"/>
<path d="M128.426 232.54C129.567 232.629 130.566 231.771 130.656 230.622C130.747 229.473 129.894 228.469 128.753 228.379C127.611 228.289 126.613 229.148 126.522 230.297C126.432 231.446 127.284 232.45 128.426 232.54Z" fill="#B9C4E1"/>
<path d="M108.758 208.831C109.832 208.916 110.772 208.108 110.857 207.026C110.942 205.945 110.14 205 109.066 204.915C107.991 204.831 107.051 205.639 106.966 206.72C106.881 207.802 107.683 208.747 108.758 208.831Z" fill="#B9C4E1"/>
<path d="M270.383 135.472C271.525 135.561 272.524 134.703 272.614 133.554C272.704 132.405 271.852 131.401 270.71 131.311C269.569 131.221 268.57 132.08 268.48 133.229C268.39 134.378 269.242 135.382 270.383 135.472Z" fill="#B9C4E1"/>
<path d="M20.3112 148.073C20.9824 148.125 21.5696 147.621 21.6227 146.945C21.6758 146.269 21.1747 145.679 20.5035 145.626C19.8322 145.573 19.245 146.078 19.1919 146.754C19.1388 147.429 19.6399 148.02 20.3112 148.073Z" fill="#B9C4E1"/>
<path d="M380.995 107.229C381.935 107.303 382.758 106.596 382.832 105.65C382.907 104.703 382.205 103.877 381.265 103.803C380.324 103.729 379.502 104.436 379.428 105.382C379.353 106.328 380.055 107.155 380.995 107.229Z" fill="#B9C4E1"/>
<path d="M198.047 61.205C198.382 61.2313 198.676 60.9789 198.702 60.6411C198.729 60.3034 198.478 60.0081 198.143 59.9818C197.807 59.9554 197.514 60.2078 197.487 60.5456C197.461 60.8834 197.711 61.1786 198.047 61.205Z" fill="#B9C4E1"/>
<path d="M169.268 63.1287C169.872 63.1762 170.401 62.7218 170.448 62.1138C170.496 61.5058 170.045 60.9744 169.441 60.9269C168.837 60.8794 168.308 61.3338 168.261 61.9418C168.213 62.5498 168.664 63.0812 169.268 63.1287Z" fill="#B9C4E1"/>
<path d="M20.4079 146.85L14.0553 73.584L-8.721 98.758L20.4079 146.85Z" stroke="#B9C4E1" stroke-width="0.5" stroke-miterlimit="10" stroke-linecap="round" stroke-linejoin="round"/>
<path d="M53.3522 4.76819L68.1479 -76.0697L83.3356 -48.281L53.3522 4.76819Z" stroke="#B9C4E1" stroke-width="0.5" stroke-miterlimit="10" stroke-linecap="round" stroke-linejoin="round"/>
<path d="M14.0553 73.584L53.3523 4.76825L93.2546 32.5296L14.0553 73.584Z" stroke="#B9C4E1" stroke-width="0.5" stroke-miterlimit="10" stroke-linecap="round" stroke-linejoin="round"/>
<path d="M95.2949 79.7236L53.3523 4.76825L93.2546 32.5296L95.2949 79.7236Z" stroke="#B9C4E1" stroke-width="0.5" stroke-miterlimit="10" stroke-linecap="round" stroke-linejoin="round"/>
<path d="M20.4077 146.85L144.044 186.364L108.912 206.873L20.4077 146.85Z" stroke="#B9C4E1" stroke-width="0.5" stroke-miterlimit="10" stroke-linecap="round" stroke-linejoin="round"/>
<path d="M173.583 131.187L144.044 186.364L108.912 206.873L173.583 131.187Z" stroke="#B9C4E1" stroke-width="0.5" stroke-miterlimit="10" stroke-linecap="round" stroke-linejoin="round"/>
<path d="M270.547 133.391L173.583 131.187L300.781 33.5747L270.547 133.391Z" stroke="#B9C4E1" stroke-width="0.5" stroke-miterlimit="10" stroke-linecap="round" stroke-linejoin="round"/>
<path d="M267.576 1.53787L270.547 133.391L300.781 33.5746L267.576 1.53787Z" stroke="#B9C4E1" stroke-width="0.5" stroke-miterlimit="10" stroke-linecap="round" stroke-linejoin="round"/>
<path d="M95.2949 79.7236L108.912 206.873L173.583 131.187L95.2949 79.7236Z" stroke="#B9C4E1" stroke-width="0.5" stroke-miterlimit="10" stroke-linecap="round" stroke-linejoin="round"/>
<path d="M300.781 33.5747L353.614 16.6733L381.13 105.516L300.781 33.5747Z" stroke="#B9C4E1" stroke-width="0.5" stroke-miterlimit="10" stroke-linecap="round" stroke-linejoin="round"/>
<path d="M246.04 -62.2097L267.576 1.53789L293.53 -121.64L246.04 -62.2097Z" stroke="#B9C4E1" stroke-width="0.5" stroke-miterlimit="10" stroke-linecap="round" stroke-linejoin="round"/>
</g>
</svg>
