<svg width="587" height="105" viewBox="0 0 587 105" fill="none" xmlns="http://www.w3.org/2000/svg">
<path d="M0.513112 35.2408C0.0138679 34.9601 -0.142146 34.5235 0.138679 33.9622L3.29016 27.3822C3.50858 26.8832 3.94541 26.6649 4.50706 27.0079C7.09689 28.5984 10.2484 30.3136 14.2423 30.3136C15.8961 30.3136 17.0194 29.9705 17.6746 29.4716C18.6107 28.8167 18.7667 27.8811 18.7667 27.3198C18.7667 25.3863 16.7697 24.4508 14.1175 23.6088C11.2157 22.6732 7.47132 21.8624 4.66308 19.8042C2.16686 17.9331 0.419504 15.5007 0.419504 11.0724C0.388301 7.76679 1.82363 4.83539 4.66308 2.83955C7.09689 1.062 10.6852 0.0328979 15.2096 0.0328979C21.6374 0.0328979 25.4441 1.74807 27.8155 2.96429C28.3148 3.24496 28.4084 3.74392 28.1899 4.24288L25.0385 10.7917C24.7576 11.2907 24.3208 11.4466 23.8216 11.166C21.3878 9.825 18.3611 8.39049 14.648 8.39049C13.431 8.39049 12.495 8.60878 11.8709 8.88945C11.0284 9.32604 10.654 9.94974 10.654 10.6046C10.654 12.3198 12.5262 13.0994 15.1472 13.8791C18.2363 14.8146 22.3862 15.6566 25.3193 17.9019C27.7531 19.7418 29.4069 22.4237 29.4069 26.5402C29.4069 30.2824 27.7531 33.2761 25.1009 35.3655C22.3862 37.5485 18.5795 38.7023 14.3359 38.7023C8.06418 38.7023 3.44617 36.9248 0.513112 35.2408Z" fill="#134DA0"/>
<path d="M51.8103 0.530151C54.8994 0.530151 58.2381 1.12267 60.9839 3.46154C63.8546 5.83161 65.6956 9.605 65.6956 14.0645C65.6956 18.711 63.6986 22.578 60.6095 24.948C57.9573 27.0374 55.0242 27.5988 52.0912 27.5988H44.4777V37.1726C44.4777 37.7339 44.0408 38.1705 43.4792 38.1705H35.7409C35.1793 38.1705 34.7424 37.7339 34.7424 37.1726V1.52807C34.7424 0.966742 35.1793 0.530151 35.7409 0.530151H51.8103ZM53.8385 9.85448C52.9024 9.26196 51.7479 9.01248 50.5622 9.01248H44.4153V19.0541H50.5622C51.7167 19.0541 52.8712 18.8358 53.7761 18.2744C54.993 17.5572 55.7731 16.2162 55.7731 14.0333C55.7731 11.9127 55.0242 10.5717 53.8385 9.85448Z" fill="#134DA0"/>
<path d="M89.9403 38.7006C78.9881 38.7006 69.5337 31.0915 69.5337 19.4283C69.5337 7.67151 78.9881 0.0311737 89.9403 0.0311737C100.83 0.0311737 110.284 7.64032 110.284 19.4283C110.284 31.2474 100.83 38.7006 89.9403 38.7006ZM89.9403 9.1372C84.0742 9.1372 79.893 13.4407 79.893 19.4283C79.893 25.4158 84.0742 29.657 89.9403 29.657C95.8064 29.657 99.9564 25.4158 99.9564 19.4283C99.9564 13.4407 95.8064 9.1372 89.9403 9.1372Z" fill="#134DA0"/>
<path d="M141.206 24.0749L148.383 36.4553C148.82 37.2349 148.944 38.1705 147.821 38.1705H139.303C138.429 38.1705 137.868 38.0146 137.431 37.1726L131.502 25.9148H125.574V37.1726C125.574 37.7339 125.137 38.1705 124.575 38.1705H116.837C116.275 38.1705 115.838 37.7339 115.838 37.1726V1.52807C115.838 0.966742 116.275 0.530151 116.837 0.530151H133.593C137.306 0.530151 140.769 1.30978 143.266 3.24325C146.074 5.45739 147.634 9.16841 147.634 13.1289C147.634 16.4345 146.479 19.7713 143.484 22.422C142.735 23.0769 141.955 23.6383 141.206 24.0749ZM125.605 8.763V17.7131H132.126C133.842 17.7131 135.153 17.4948 136.058 16.8711C137.119 16.2162 137.774 14.9376 137.774 13.2225C137.774 11.5697 137.212 10.4158 136.214 9.69855C135.34 9.04366 134.123 8.763 132.937 8.763H125.605Z" fill="#134DA0"/>
<path d="M182.332 0.530151C182.893 0.530151 183.33 0.966742 183.33 1.52807V8.1393C183.33 8.70063 182.893 9.13722 182.332 9.13722H171.723V37.1414C171.723 37.7027 171.286 38.1393 170.724 38.1393H162.986C162.424 38.1393 161.987 37.7027 161.987 37.1414V9.13722H151.378C150.817 9.13722 150.38 8.70063 150.38 8.1393V1.52807C150.38 0.966742 150.817 0.530151 151.378 0.530151H182.332Z" fill="#134DA0"/>
<path d="M210.57 0.530151C211.132 0.530151 211.568 0.966742 211.568 1.52807V37.1726C211.568 37.7339 211.132 38.1705 210.57 38.1705H202.832C202.27 38.1705 201.833 37.7339 201.833 37.1726V1.52807C201.833 0.966742 202.27 0.530151 202.832 0.530151H210.57Z" fill="#134DA0"/>
<path d="M243.395 1.52807C243.395 0.966742 243.832 0.530151 244.394 0.530151H251.695C252.257 0.530151 252.694 0.966742 252.694 1.52807V37.1726C252.694 37.7339 252.257 38.1705 251.695 38.1705H244.956C244.175 38.1705 243.739 38.0146 243.177 37.1726L227.919 16.7776V37.1726C227.919 37.7339 227.482 38.1705 226.92 38.1705H219.65C219.088 38.1705 218.652 37.7339 218.652 37.1726V1.52807C218.652 0.966742 219.088 0.530151 219.65 0.530151H226.452C227.232 0.530151 227.607 0.748447 228.231 1.52807L243.427 21.9231V1.52807H243.395Z" fill="#134DA0"/>
<path d="M284.552 1.52807C284.552 0.966742 284.989 0.530151 285.55 0.530151H292.852C293.413 0.530151 293.85 0.966742 293.85 1.52807V37.1726C293.85 37.7339 293.413 38.1705 292.852 38.1705H286.112C285.332 38.1705 284.895 38.0146 284.333 37.1726L269.075 16.7776V37.1726C269.075 37.7339 268.638 38.1705 268.077 38.1705H260.775C260.214 38.1705 259.777 37.7339 259.777 37.1726V1.52807C259.777 0.966742 260.214 0.530151 260.775 0.530151H267.578C268.358 0.530151 268.732 0.748447 269.356 1.52807L284.552 21.9231V1.52807Z" fill="#134DA0"/>
<path d="M319.811 38.7006C308.859 38.7006 299.404 31.0915 299.404 19.4283C299.404 7.64032 308.859 0.0311737 319.811 0.0311737C330.701 0.0311737 340.155 7.64032 340.155 19.4283C340.155 31.2474 330.701 38.7006 319.811 38.7006ZM319.811 9.1372C313.945 9.1372 309.764 13.4407 309.764 19.4283C309.764 25.4158 313.945 29.657 319.811 29.657C325.677 29.657 329.827 25.4158 329.827 19.4283C329.827 13.4407 325.677 9.1372 319.811 9.1372Z" fill="#134DA0"/>
<path d="M367.021 37.3285C366.74 38.0457 366.303 38.3264 365.46 38.3264H357.285C356.443 38.3264 356.006 38.0457 355.725 37.3285L342.464 1.90229C342.121 1.12267 342.339 0.530151 343.244 0.530151H351.482C352.355 0.530151 352.855 0.873187 353.135 1.62163L361.373 26.1019H361.498L370.047 1.62163C370.328 0.842002 370.827 0.530151 371.701 0.530151H379.938C380.656 0.530151 380.999 1.09148 380.719 1.90229L367.021 37.3285Z" fill="#134DA0"/>
<path d="M415.884 37.1726C415.884 37.7339 415.447 38.1705 414.886 38.1705H407.147C406.586 38.1705 406.149 37.7339 406.149 37.1726V27.4428H394.167V37.1726C394.167 37.7339 393.73 38.1705 393.168 38.1705H385.43C384.869 38.1705 384.432 37.7339 384.432 37.1726V15.4366C384.432 10.8524 386.304 6.04989 390.391 2.99376C392.825 1.18503 396.07 0 400.127 0C404.214 0 407.49 1.15385 409.924 2.99376C414.012 6.01871 415.884 10.8524 415.884 15.4366V37.1726ZM396.101 10.4782C395.009 11.5385 394.167 13.1913 394.167 15.9044V18.8358H406.149V15.9044C406.149 13.1913 405.306 11.5385 404.214 10.4782C403.06 9.41788 401.562 9.10603 400.127 9.10603C398.754 9.10603 397.318 9.35551 396.101 10.4782Z" fill="#134DA0"/>
<path d="M451.861 0.530151C452.423 0.530151 452.859 0.966742 452.859 1.52807V8.1393C452.859 8.70063 452.423 9.13722 451.861 9.13722H441.252V37.1414C441.252 37.7027 440.815 38.1393 440.253 38.1393H432.515C431.954 38.1393 431.517 37.7027 431.517 37.1414V9.13722H420.908C420.346 9.13722 419.909 8.70063 419.909 8.1393V1.52807C419.909 0.966742 420.346 0.530151 420.908 0.530151H451.861Z" fill="#134DA0"/>
<path d="M465.684 0.530151C466.245 0.530151 466.682 0.966742 466.682 1.52807V37.1726C466.682 37.7339 466.245 38.1705 465.684 38.1705H457.945C457.384 38.1705 456.947 37.7339 456.947 37.1726V1.52807C456.947 0.966742 457.384 0.530151 457.945 0.530151H465.684Z" fill="#134DA0"/>
<path d="M492.674 38.7006C481.722 38.7006 472.267 31.0915 472.267 19.4283C472.267 7.67151 481.722 0.0311737 492.674 0.0311737C503.564 0.0311737 513.018 7.64032 513.018 19.4283C513.018 31.2474 503.564 38.7006 492.674 38.7006ZM492.674 9.1372C486.808 9.1372 482.627 13.4407 482.627 19.4283C482.627 25.4158 486.808 29.657 492.674 29.657C498.54 29.657 502.69 25.4158 502.69 19.4283C502.69 13.4407 498.54 9.1372 492.674 9.1372Z" fill="#134DA0"/>
<path d="M543.347 1.52807C543.347 0.966742 543.784 0.530151 544.346 0.530151H551.647C552.209 0.530151 552.646 0.966742 552.646 1.52807V37.1726C552.646 37.7339 552.209 38.1705 551.647 38.1705H544.907C544.127 38.1705 543.69 38.0146 543.129 37.1726L527.871 16.7776V37.1726C527.871 37.7339 527.434 38.1705 526.872 38.1705H519.571C519.009 38.1705 518.572 37.7339 518.572 37.1726V1.52807C518.572 0.966742 519.009 0.530151 519.571 0.530151H526.373C527.153 0.530151 527.527 0.748447 528.151 1.52807L543.347 21.9231V1.52807Z" fill="#134DA0"/>
<path d="M558.106 35.2391C557.607 34.9584 557.451 34.5218 557.732 33.9605L560.883 27.3804C561.102 26.8815 561.538 26.6632 562.1 27.0062C564.69 28.5967 567.841 30.3118 571.835 30.3118C573.489 30.3118 574.612 29.9688 575.268 29.4698C576.204 28.815 576.36 27.8794 576.36 27.3181C576.36 25.3846 574.363 24.4491 571.711 23.6071C568.84 22.6715 565.064 21.8295 562.256 19.8025C559.76 17.9314 558.013 15.4989 558.013 11.0707C558.013 7.76506 559.448 4.83367 562.256 2.83783C564.69 1.06028 568.278 0.0311737 572.803 0.0311737C579.23 0.0311737 583.037 1.74635 585.409 2.96257C585.908 3.24323 586.001 3.74219 585.783 4.24115L582.632 10.8212C582.351 11.3202 581.914 11.4761 581.415 11.1954C578.981 9.85446 575.954 8.41995 572.241 8.41995C571.024 8.41995 570.088 8.63824 569.464 8.91891C568.621 9.3555 568.247 9.9792 568.247 10.6341C568.247 12.3493 570.119 13.1289 572.74 13.9085C575.829 14.8441 579.979 15.6861 582.912 17.9314C585.346 19.7401 587 22.422 587 26.5384C587 30.2807 585.346 33.2744 582.694 35.3638C579.979 37.5156 576.173 38.6694 571.929 38.6694C565.688 38.7006 561.039 36.9231 558.106 35.2391Z" fill="#134DA0"/>
<path d="M33.4944 103.472C33.4944 104.033 33.0575 104.47 32.4959 104.47H24.7576C24.1959 104.47 23.7591 104.033 23.7591 103.472V93.7422H11.7772V103.472C11.7772 104.033 11.3404 104.47 10.7788 104.47H3.04048C2.47883 104.47 2.04199 104.033 2.04199 103.472V81.7359C2.04199 77.1517 3.91416 72.3492 8.00172 69.2931C10.4355 67.4844 13.6806 66.2993 17.737 66.2993C21.8245 66.2993 25.1008 67.4532 27.5346 69.2931C31.6222 72.3181 33.4944 77.1517 33.4944 81.7359V103.472ZM13.7118 76.7775C12.6197 77.8378 11.7772 79.4906 11.7772 82.2037V85.1351H23.7591V82.2037C23.7591 79.4906 22.9166 77.8378 21.8245 76.7775C20.67 75.7172 19.1723 75.4054 17.737 75.4054C16.3641 75.4054 14.9287 75.6549 13.7118 76.7775Z" fill="#28A545"/>
<path d="M80.829 67.8274C80.829 67.2661 81.2658 66.8295 81.8275 66.8295H89.5658C90.1274 66.8295 90.5643 67.2661 90.5643 67.8274V90.9355C90.5643 95.738 89.0041 99.106 86.5703 101.32C83.6996 103.909 79.6745 104.969 75.6181 104.969C73.8084 104.969 71.8114 104.751 69.9392 104.127C68.3791 103.628 66.9126 102.786 65.5084 101.57C64.1355 102.786 62.6378 103.628 61.0777 104.127C59.2055 104.719 57.2085 104.969 55.3988 104.969C51.3736 104.969 47.3172 103.909 44.4466 101.32C42.0128 99.106 40.4526 95.738 40.4526 90.9355V67.8274C40.4526 67.2661 40.8895 66.8295 41.4511 66.8295H49.1894C49.7511 66.8295 50.1879 67.2661 50.1879 67.8274V90.7484C50.1879 92.6195 50.7495 93.8981 51.6232 94.7401C52.6217 95.6757 53.9946 96.0187 55.3676 96.0187C57.4581 96.0187 58.7999 95.4574 59.5799 94.4283C60.36 93.368 60.6408 91.7775 60.6408 89.6881V67.8586C60.6408 67.2973 61.0777 66.8607 61.6393 66.8607H69.3776C69.9392 66.8607 70.3761 67.2973 70.3761 67.8586V89.6881C70.3761 91.7775 70.6569 93.3992 71.437 94.4283C72.217 95.4886 73.5276 96.0187 75.6493 96.0187C77.0223 96.0187 78.4264 95.6757 79.3937 94.7401C80.2673 93.8981 80.829 92.6507 80.829 90.7484V67.8274Z" fill="#28A545"/>
<path d="M128.975 103.472C128.975 104.033 128.538 104.47 127.976 104.47H120.238C119.676 104.47 119.24 104.033 119.24 103.472V93.7422H107.258V103.472C107.258 104.033 106.821 104.47 106.259 104.47H98.5209C97.9593 104.47 97.5225 104.033 97.5225 103.472V81.7359C97.5225 77.1517 99.3946 72.3492 103.482 69.2931C105.916 67.4844 109.161 66.2993 113.217 66.2993C117.305 66.2993 120.581 67.4532 123.015 69.2931C127.103 72.3181 128.975 77.1517 128.975 81.7359V103.472ZM109.192 76.7775C108.1 77.8378 107.258 79.4906 107.258 82.2037V85.1351H119.24V82.2037C119.24 79.4906 118.397 77.8378 117.305 76.7775C116.15 75.7172 114.653 75.4054 113.217 75.4054C111.845 75.4054 110.409 75.6549 109.192 76.7775Z" fill="#28A545"/>
<path d="M161.301 90.3742L168.478 102.755C168.914 103.534 169.039 104.47 167.916 104.47H159.429C158.555 104.47 157.993 104.314 157.557 103.472L151.628 92.2141H145.7V103.472C145.7 104.033 145.263 104.47 144.701 104.47H136.963C136.401 104.47 135.964 104.033 135.964 103.472V67.8274C135.964 67.2661 136.401 66.8295 136.963 66.8295H153.719C157.432 66.8295 160.895 67.6091 163.392 69.5426C166.2 71.7567 167.76 75.4678 167.76 79.4283C167.76 82.7339 166.605 86.0707 163.61 88.7214C162.861 89.3763 162.081 89.9376 161.301 90.3742ZM145.731 75.0624V84.0125H152.252C153.968 84.0125 155.279 83.7942 156.184 83.1705C157.245 82.5156 157.9 81.237 157.9 79.5218C157.9 77.869 157.338 76.7152 156.34 75.9979C155.466 75.343 154.249 75.0624 153.063 75.0624H145.731Z" fill="#28A545"/>
<path d="M200.616 101.757C196.685 103.971 192.316 104.47 188.229 104.47H174.468C173.907 104.47 173.47 104.033 173.47 103.472V67.8274C173.47 67.2661 173.907 66.8295 174.468 66.8295H188.947C194.469 66.8295 199.774 67.7027 204.361 72.474C207.138 75.343 209.01 79.6154 209.01 85.6341C209.01 92.1206 206.763 98.264 200.616 101.757ZM183.205 96.2682H187.574C190.007 96.2682 192.223 95.9252 194.033 95.052C197.777 93.2744 199.056 89.6881 199.056 85.6029C199.056 82.079 198.12 79.5842 196.466 77.9314C194.407 75.842 191.318 75 187.574 75H183.205V96.2682Z" fill="#28A545"/>
<path d="M253.536 96.0499C254.098 96.0499 254.535 96.4865 254.535 97.0478V103.472C254.535 104.033 254.098 104.47 253.536 104.47H229.697C229.136 104.47 228.699 104.033 228.699 103.472V100.104C228.699 94.6778 229.978 91.1539 233.13 88.1289C236.999 84.4179 241.71 83.4823 244.581 80.7692C245.455 79.8961 245.923 78.8981 245.923 77.6196C245.923 76.9023 245.642 75.9044 244.924 75.2495C244.331 74.6882 243.426 74.3763 241.991 74.3763C239.276 74.3763 236.531 75.5302 233.535 77.526C232.974 77.869 232.318 78.025 231.975 77.3077L229.26 71.788C228.98 71.289 229.104 70.9148 229.635 70.5094C232.786 68.4512 236.78 66.3618 242.802 66.3618C246.796 66.3618 250.104 67.7963 252.257 70.104C254.035 71.9751 255.034 74.5322 255.034 77.3389C255.034 80.7069 253.817 83.5759 251.539 85.8524C247.888 89.5011 243.801 90.3119 240.868 92.6507C239.651 93.5863 239.152 94.6466 239.152 96.0811H253.536V96.0499Z" fill="#28A545"/>
<path d="M275.253 105C265.924 105 260.838 98.3576 260.838 85.6653C260.838 72.9106 265.924 66.2682 275.253 66.2682C284.583 66.2682 289.669 72.9106 289.669 85.6653C289.669 98.3888 284.583 105 275.253 105ZM278.717 77.4948C277.937 75.9356 276.845 75.1871 275.222 75.1871C273.724 75.1871 272.57 76.0291 271.79 77.4948C270.854 79.2724 270.354 82.079 270.354 85.6653C270.354 89.3139 270.791 92.0894 271.727 93.8358C272.507 95.3327 273.6 96.1123 275.222 96.1123C276.782 96.1123 277.937 95.3327 278.717 93.8358C279.59 92.0582 279.996 89.3451 279.996 85.6653C279.996 82.0167 279.622 79.2724 278.717 77.4948Z" fill="#28A545"/>
<path d="M297.626 78.8669C296.752 79.1476 296.284 78.9917 296.284 77.8066V71.5073C296.284 70.9147 296.503 70.3534 297.283 70.0727L306.893 66.9854C307.548 66.7671 308.328 66.6112 308.984 66.6112H313.633C314.194 66.6112 314.631 67.0478 314.631 67.6091V96.0499H321.933C322.494 96.0499 322.931 96.4865 322.931 97.0478V103.472C322.931 104.033 322.494 104.47 321.933 104.47H297.064C296.502 104.47 296.066 104.033 296.066 103.472V97.0478C296.066 96.4865 296.502 96.0499 297.064 96.0499H304.927V76.4969L297.626 78.8669Z" fill="#28A545"/>
<path d="M356.006 94.3035C356.006 97.6091 354.508 100.478 351.7 102.412C349.266 104.064 345.896 105 341.59 105C337.097 105 333.696 104.064 331.294 102.412C328.516 100.541 327.144 97.765 327.144 94.4594C327.144 89.2515 330.295 86.5072 333.727 84.6361C331.356 82.765 328.704 80.6445 328.704 76.0291C328.704 73.0041 329.983 70.7276 332.011 69.1684C334.507 67.1725 338.033 66.2993 341.528 66.2993C344.898 66.2993 348.767 67.2349 351.419 69.449C353.229 71.0083 354.446 73.1601 354.446 76.0291C354.446 80.9875 351.856 83.0457 349.797 84.6361C353.354 87.1621 356.006 89.3139 356.006 94.3035ZM344.617 90.4677C343.743 89.8752 342.62 89.2515 341.247 88.5966C339.749 89.2515 338.72 89.9688 338.033 90.6549C336.941 91.7151 336.692 92.7443 336.692 93.6486C336.692 95.2391 337.534 97.7962 341.559 97.7962C345.584 97.7962 346.645 95.4885 346.645 93.6486C346.676 92.4636 346.021 91.4657 344.617 90.4677ZM341.746 73.2848C340.093 73.2848 338.033 73.8773 338.033 75.9979C338.033 77.0894 338.595 78.0561 339.375 78.8045C340.217 79.5842 341.247 80.1767 342.246 80.738C343.119 80.1767 343.743 79.6465 344.18 79.0852C345.023 78.0249 345.179 77.0894 345.179 76.3721C345.179 74.4386 343.587 73.2848 341.746 73.2848Z" fill="#28A545"/>
</svg>
